<svg width="121" height="122" viewBox="0 0 121 122" fill="none" xmlns="http://www.w3.org/2000/svg">
<path d="M34.5675 110.44H48.9817M73.0054 110.44H87.4196M34.5525 111.4V45.16C35.6448 26.7705 46.3137 11.9071 60.4981 1C74.6825 11.9071 85.3514 26.7705 86.4437 45.16V111.4M34.5561 71.08L11.4897 87.88C4.16768 93.2994 1.22588 101.57 2.02162 110.44H33.7329M10.5288 88.36V61.48M10.5288 61.48V60.904C10.812 55.1473 13.578 50.4944 17.2554 47.08C20.9329 50.4944 23.6989 55.1473 23.9821 60.904V61.48M10.5288 61.48H23.9821M23.9821 78.76V61.48M23.9821 110.44V119.08C23.9821 120.04 23.0211 120.52 22.0602 120.52H12.4507C11.4898 120.52 10.5305 120.04 10.5288 119.08V110.44M86.4438 71.08L109.51 87.88C116.832 93.2994 119.774 101.57 118.978 110.44H87.2671M110.471 88.36V61.48M110.471 61.48V60.904C110.188 55.1473 107.422 50.4944 103.745 47.08C100.067 50.4944 97.3011 55.1473 97.0179 60.904V61.48M110.471 61.48H97.0179M97.0179 78.76V61.48M97.0179 110.44V119.08C97.0179 120.04 97.9788 120.52 98.9398 120.52H108.549C109.512 120.52 110.469 120.04 110.471 119.08V110.44" stroke="#2E2D2C" stroke-width="2" stroke-linejoin="round"/>
<path d="M49.4634 72.0401H72.5261M48.9829 76.0721C49.4886 63.5992 54.4279 53.518 60.9948 46.1201C67.5616 53.518 72.5009 63.5992 73.0066 76.0721V119.08C73.0066 120.04 72.0456 121 71.0847 121H50.9048C49.9439 121 48.9829 120.04 48.9829 119.08V76.0721Z" stroke="#2E2D2C" stroke-width="2" stroke-linejoin="round"/>
<path d="M39.5697 26.5117C39.0175 26.5117 38.5697 26.9594 38.5697 27.5117C38.5697 28.064 39.0175 28.5117 39.5697 28.5117L39.5697 26.5117ZM82.8256 26.5117L39.5697 26.5117L39.5697 28.5117L82.8256 28.5117L82.8256 26.5117Z" fill="#2E2D2C"/>
</svg>
