<svg width="121" height="120" viewBox="0 0 121 120" fill="none" xmlns="http://www.w3.org/2000/svg">
<path d="M80.021 24.8701L80.021 44.1488L68.2861 44.1488L68.2861 24.8701" stroke="#2E2D2C" stroke-width="2" stroke-linejoin="round"/>
<path d="M80.021 32.4131L68.2861 32.4131" stroke="#2E2D2C" stroke-width="2" stroke-linejoin="round"/>
<path d="M74.1494 50.0126L73.1494 50.0126C73.1494 50.3786 73.3493 50.7153 73.6705 50.8905L74.1494 50.0126ZM83.3696 55.0419L84.3696 55.0419C84.3696 54.6759 84.1697 54.3392 83.8485 54.164L83.3696 55.0419ZM82.3696 65.1003C82.3696 65.6526 82.8173 66.1003 83.3696 66.1003C83.9219 66.1003 84.3696 65.6526 84.3696 65.1003L82.3696 65.1003ZM73.1494 44.9834L73.1494 50.0126L75.1494 50.0126L75.1494 44.9834L73.1494 44.9834ZM73.6705 50.8905L82.8908 55.9197L83.8485 54.164L74.6282 49.1347L73.6705 50.8905ZM82.3696 55.0419L82.3696 65.1003L84.3696 65.1003L84.3696 55.0419L82.3696 55.0419Z" fill="#2E2D2C"/>
<path d="M74.9915 50.0126L75.9915 50.0126C75.9915 50.3786 75.7916 50.7153 75.4703 50.8905L74.9915 50.0126ZM65.7712 55.0419L64.7712 55.0419C64.7712 54.6759 64.9711 54.3392 65.2924 54.164L65.7712 55.0419ZM66.7712 65.1003C66.7712 65.6526 66.3235 66.1003 65.7712 66.1003C65.219 66.1003 64.7712 65.6526 64.7712 65.1003L66.7712 65.1003ZM75.9915 44.9834L75.9915 50.0126L73.9915 50.0126L73.9915 44.9834L75.9915 44.9834ZM75.4703 50.8905L66.2501 55.9197L65.2924 54.164L74.5126 49.1347L75.4703 50.8905ZM66.7712 55.0419L66.7712 65.1003L64.7712 65.1003L64.7712 55.0419L66.7712 55.0419Z" fill="#2E2D2C"/>
<path d="M74.9896 27.2181C68.135 27.2181 62.5783 21.6613 62.5783 14.8068C62.5783 7.95222 68.135 2.39551 74.9896 2.39551C81.8442 2.39551 87.4009 7.95222 87.4009 14.8068C87.4009 21.6613 81.8442 27.2181 74.9896 27.2181Z" stroke="#2E2D2C" stroke-width="2"/>
<circle cx="13.411" cy="40.0705" r="12.4113" transform="rotate(90 13.411 40.0705)" stroke="#2E2D2C" stroke-width="2"/>
<path d="M100.26 117.237C94.2726 117.237 89.4184 112.383 89.4184 106.395C89.4184 100.407 94.2726 95.5527 100.26 95.5527C106.248 95.5527 111.103 100.407 111.103 106.395C111.103 112.383 106.248 117.237 100.26 117.237Z" stroke="#2E2D2C" stroke-width="2"/>
<path d="M29.2087 117.237C27.6371 117.237 26.5169 117.187 25.7084 117.063C24.8898 116.938 24.523 116.756 24.3409 116.596C24.1892 116.463 24.0585 116.254 23.9795 115.751C23.8957 115.216 23.8929 114.517 23.8929 113.5L23.8929 96.9429C25.463 96.0578 27.2756 95.5527 29.2087 95.5527C35.1966 95.5527 40.0508 100.407 40.0508 106.395C40.0508 112.383 35.1966 117.237 29.2087 117.237Z" stroke="#2E2D2C" stroke-width="2"/>
<path d="M50.3147 82.7102C50.3147 83.2625 50.7624 83.7102 51.3147 83.7102C51.867 83.7102 52.3147 83.2625 52.3147 82.7102H50.3147ZM50.3147 70.8682V82.7102H52.3147V70.8682H50.3147Z" fill="#2E2D2C"/>
<path d="M51.3147 90.6059C51.3147 90.6059 51.3147 97.7111 51.3147 100.869C51.3147 104.027 53.6831 105.606 56.841 105.606C59.9989 105.606 81.3146 105.606 81.3146 105.606V89.8164" stroke="#2E2D2C" stroke-width="2" stroke-linejoin="round"/>
<path d="M37.8928 111.922L91.5769 111.922" stroke="#2E2D2C" stroke-width="2" stroke-linejoin="round"/>
<path d="M1.57617 44.0264V118.237H24.4709V44.0264" stroke="#2E2D2C" stroke-width="2" stroke-linejoin="round"/>
<path d="M67.1047 6.13184H34.7364L6.31543 30.6055" stroke="#2E2D2C" stroke-width="2" stroke-linejoin="round"/>
<path d="M64.7343 20.3438H40.3529L24.4712 37.7121" stroke="#2E2D2C" stroke-width="2" stroke-linejoin="round"/>
<path d="M24.4712 70.8682H53.6816C53.6816 70.8682 59.0233 71.0065 62.3658 71.6576C68.2104 72.7961 71.3589 74.3146 76.5763 77.1839C81.2242 79.74 87.6289 85.0787 87.6289 85.0787C86.0882 88.0375 83.8362 89.4199 80.5237 89.8155H24.4712" stroke="#2E2D2C" stroke-width="2" stroke-linejoin="round"/>
<path d="M87.6313 85.0801C87.6313 85.0801 95.4319 85.4863 100.263 86.659C104.717 87.7402 107.213 88.5625 111.315 90.6064C114.913 92.399 120 96.1327 120 96.1327L117.631 110.343L108.947 111.922" stroke="#2E2D2C" stroke-width="2" stroke-linejoin="round"/>
</svg>
