<svg width="114" height="120" viewBox="0 0 114 120" fill="none" xmlns="http://www.w3.org/2000/svg">
<path d="M80.1843 71.8525V102.964" stroke="#2E2D2C" stroke-width="2" stroke-linejoin="round"/>
<path d="M56.4797 80V102.963" stroke="#2E2D2C" stroke-width="2" stroke-linejoin="round"/>
<path d="M58.7027 7.40723L30.186 25.8138" stroke="#2E2D2C" stroke-width="2" stroke-linejoin="round"/>
<path d="M63.3901 20.9307L46.9302 33.4888" stroke="#2E2D2C" stroke-width="2" stroke-linejoin="round"/>
<path d="M44.6313 31.1104L72.7795 59.2585M64.6313 57.777C64.6313 57.777 40.1869 57.777 31.298 57.777C22.4091 57.777 16.4832 63.7029 16.4832 72.5918V102.962" stroke="#2E2D2C" stroke-width="2" stroke-linejoin="round"/>
<path d="M29.8154 48.1475L37.9636 57.7771" stroke="#2E2D2C" stroke-width="2" stroke-linejoin="round"/>
<path d="M77.2246 7.40723H94.2616V17.7776H77.2246" stroke="#2E2D2C" stroke-width="2" stroke-linejoin="round"/>
<path d="M83.8906 7.40723V17.7776" stroke="#2E2D2C" stroke-width="2" stroke-linejoin="round"/>
<path d="M99.4435 12.5935V13.5935C99.8094 13.5935 100.146 13.3936 100.321 13.0723L99.4435 12.5935ZM103.888 4.44531V3.44531C103.522 3.44531 103.185 3.6452 103.01 3.96646L103.888 4.44531ZM112.777 5.44531C113.329 5.44531 113.777 4.9976 113.777 4.44531C113.777 3.89303 113.329 3.44531 112.777 3.44531V5.44531ZM94.999 13.5935H99.4435V11.5935H94.999V13.5935ZM100.321 13.0723L104.766 4.92416L103.01 3.96646L98.5656 12.1146L100.321 13.0723ZM103.888 5.44531H112.777V3.44531H103.888V5.44531Z" fill="#2E2D2C"/>
<path d="M99.4435 11.8519V10.8519C99.8094 10.8519 100.146 11.0517 100.321 11.373L99.4435 11.8519ZM103.888 20V21C103.522 21 103.185 20.8001 103.01 20.4789L103.888 20ZM112.777 19C113.329 19 113.777 19.4477 113.777 20C113.777 20.5523 113.329 21 112.777 21V19ZM94.999 10.8519H99.4435V12.8519H94.999V10.8519ZM100.321 11.373L104.766 19.5211L103.01 20.4789L98.5656 12.3307L100.321 11.373ZM103.888 19H112.777V21H103.888V19Z" fill="#2E2D2C"/>
<path d="M79.1834 11.8519C79.1834 17.8452 74.3249 22.7037 68.3316 22.7037C62.3383 22.7037 57.4797 17.8452 57.4797 11.8519C57.4797 5.85854 62.3383 1 68.3316 1C74.3249 1 79.1834 5.85854 79.1834 11.8519Z" stroke="#2E2D2C" stroke-width="2"/>
<path d="M46.5922 37.0365C46.5922 43.848 41.0704 49.3698 34.2589 49.3698C27.4474 49.3698 21.9255 43.848 21.9255 37.0365C21.9255 30.2249 27.4474 24.7031 34.2589 24.7031C41.0704 24.7031 46.5922 30.2249 46.5922 37.0365Z" stroke="#2E2D2C" stroke-width="2"/>
<circle cx="66.8522" cy="71.1107" r="13.8148" stroke="#2E2D2C" stroke-width="2"/>
<path d="M71.7791 71.1105C71.7791 73.831 69.5737 76.0364 66.8532 76.0364C64.1327 76.0364 61.9272 73.831 61.9272 71.1105C61.9272 68.39 64.1327 66.1846 66.8532 66.1846C69.5737 66.1846 71.7791 68.39 71.7791 71.1105Z" stroke="#2E2D2C" stroke-width="2"/>
<rect x="1.18604" y="103.222" width="89.8519" height="15.7778" rx="2" stroke="#2E2D2C" stroke-width="2" stroke-linejoin="round"/>
</svg>
