<svg width="118" height="122" viewBox="0 0 118 122" fill="none" xmlns="http://www.w3.org/2000/svg">
<path d="M51.5024 1H17.4283L20.3913 9.88889H49.2802L51.5024 1Z" stroke="#373A3B" stroke-width="2" stroke-linejoin="round"/>
<path d="M27.0596 10.6299V36.9205C27.0596 47.2984 43.3559 47.2984 43.3559 36.9205V10.6299" stroke="#373A3B" stroke-width="2" stroke-linejoin="round"/>
<circle cx="35.2098" cy="33.5924" r="4.18519" stroke="#373A3B" stroke-width="2"/>
<path d="M63.2635 88.8367L63.7765 89.6951L63.7766 89.6951L63.2635 88.8367ZM12.175 62.4131L11.6621 61.5547C11.188 61.838 11.0333 62.4519 11.3166 62.926L12.175 62.4131ZM28.8939 90.3909L28.0354 90.9038C28.3187 91.3779 28.9327 91.5326 29.4068 91.2493L28.8939 90.3909ZM66.5407 10.9358L99.9784 66.8914L101.695 65.8655L68.2576 9.90983L66.5407 10.9358ZM99.9784 66.8914C101 68.6002 101.155 70.1413 100.844 71.3787C100.529 72.6289 99.7178 73.6526 98.6585 74.2856C97.5993 74.9185 96.3134 75.148 95.0634 74.8327C93.8262 74.5207 92.5426 73.6538 91.5215 71.945L89.8046 72.971C91.0646 75.0793 92.7634 76.3154 94.5743 76.772C96.3724 77.2255 98.2003 76.8893 99.6845 76.0024C101.169 75.1155 102.331 73.665 102.783 71.8667C103.239 70.0556 102.955 67.9739 101.695 65.8655L99.9784 66.8914ZM58.0838 15.9894C57.0641 14.283 56.9096 12.7438 57.2215 11.5077C57.5366 10.2587 58.3482 9.23541 59.4078 8.60235C60.4675 7.96929 61.7533 7.73951 63.0027 8.05379C64.2392 8.36481 65.5214 9.22995 66.5407 10.9358L68.2576 9.90983C66.999 7.8037 65.3009 6.56957 63.4906 6.11421C61.6933 5.66212 59.866 5.99886 58.3821 6.88542C56.8981 7.77199 55.7356 9.22145 55.2823 11.0185C54.8256 12.8285 55.1082 14.9087 56.367 17.0153L58.0838 15.9894ZM90.15 71.5997L62.7504 87.9784L63.7766 89.6951L91.1761 73.3163L90.15 71.5997ZM20.3918 56.338L11.6621 61.5547L12.688 63.2715L21.4178 58.0548L20.3918 56.338ZM11.3166 62.926L28.0354 90.9038L29.7523 89.8779L13.0334 61.9001L11.3166 62.926ZM29.4068 91.2493L38.1353 86.0334L37.1093 84.3166L28.3809 89.5325L29.4068 91.2493ZM62.7506 87.9783C56.818 91.5235 50.4903 91.2126 44.544 88.4001C38.568 85.5735 33.0147 80.2269 28.826 73.8092C24.639 67.3943 21.8711 59.9941 21.3845 53.1366C20.8984 46.2868 22.6866 40.0752 27.4821 35.8227L26.1551 34.3263C20.7614 39.1093 18.8737 46.0103 19.3895 53.2782C19.9047 60.5385 22.8165 68.2612 27.1511 74.9024C31.4841 81.5409 37.2946 87.1837 43.6888 90.2081C50.1127 93.2464 57.1616 93.648 63.7765 89.6951L62.7506 87.9783ZM91.5215 71.945L58.5585 16.7837L56.8417 17.8097L89.8046 72.971L91.5215 71.945ZM58.5585 16.7837L58.0838 15.9894L56.367 17.0153L56.8417 17.8097L58.5585 16.7837ZM44.5758 25.5823L58.1783 18.1749L57.2218 16.4185L43.6193 23.8259L44.5758 25.5823Z" fill="#373A3B"/>
<path d="M90.0225 48.4082C101.512 51.5272 112.985 59.5193 113.726 73.5934L116.689 121.001H87.0596L98.1707 75.8156" stroke="#373A3B" stroke-width="2" stroke-linejoin="round"/>
<path d="M102.874 107.667C102.874 107.114 102.427 106.667 101.874 106.667C101.322 106.667 100.874 107.114 100.874 107.667L102.874 107.667ZM100.874 107.667L100.874 121L102.874 121L102.874 107.667L100.874 107.667Z" fill="#373A3B"/>
</svg>
