<svg width="121" height="120" viewBox="0 0 121 120" fill="none" xmlns="http://www.w3.org/2000/svg">
<path d="M79.8138 61.4971H66.4182L63.7391 64.1762L73.116 74.2229L82.4929 64.1762L79.8138 61.4971Z" stroke="#2E2D2C" stroke-width="2" stroke-linejoin="round"/>
<path d="M72.4481 34.0352L87.1833 42.7423L99.2393 68.8636L80.4855 51.4494L65.7504 44.7516" stroke="#2E2D2C" stroke-width="2" stroke-linejoin="round"/>
<path d="M28.9099 116.418V109.051H41.6357L48.3335 100.344L61.729 92.3064L76.4642 90.297L86.5108 77.5712L97.8971 70.8734L104.595 60.8268L97.8971 39.3939L99.2366 27.3379L107.274 22.6494H120V116.418H28.9099Z" stroke="#2E2D2C" stroke-width="2" stroke-linejoin="round"/>
<path d="M73.1142 32.026L47.6626 16.6211L38.9555 30.0167C42.8993 33.6034 44.9835 36.7144 42.9742 40.7331L22.2111 74.8918L32.9275 81.5896L52.3511 49.4402C56.1706 44.4218 58.9386 44.1535 64.4071 46.0913L73.1142 32.026Z" stroke="#2E2D2C" stroke-width="2" stroke-linejoin="round"/>
<path d="M15.2654 111.883C15.2593 111.893 15.2535 111.903 15.2478 111.913C14.8821 112.569 13.9949 112.983 12.4344 112.873C10.921 112.766 9.08613 112.166 7.39579 111.236C5.70085 110.303 4.26148 109.099 3.4611 107.871C2.67832 106.67 2.57278 105.587 3.19076 104.61L3.2017 104.593L11.524 90.8208L23.5877 98.1107L15.2654 111.883Z" stroke="#2E2D2C" stroke-width="2" stroke-linejoin="round"/>
<path d="M13.5065 90.9664L23.5532 75.5615" stroke="#2E2D2C" stroke-width="2" stroke-linejoin="round"/>
<path d="M22.2111 96.9938L32.2577 81.5889" stroke="#2E2D2C" stroke-width="2" stroke-linejoin="round"/>
<rect x="39.3589" y="5.56736" width="13.1843" height="26.5629" rx="2" transform="rotate(32.5276 39.3589 5.56736)" stroke="#2E2D2C" stroke-width="2"/>
<rect x="59.4933" y="12.6133" width="13.1843" height="9.46171" rx="2" transform="rotate(32.5276 59.4933 12.6133)" stroke="#2E2D2C" stroke-width="2"/>
</svg>
