<svg width="121" height="123" viewBox="0 0 121 123" fill="none" xmlns="http://www.w3.org/2000/svg">
<path d="M78.5709 45.2828L110.664 54.3525C116.943 56.4455 121.129 45.9804 113.455 43.1897L78.5709 32.7246" stroke="#2E2D2C" stroke-width="2" stroke-linejoin="round"/>
<path d="M111.757 47.3759C111.757 49.5208 110.018 51.2596 107.873 51.2596C105.728 51.2596 103.99 49.5208 103.99 47.3759C103.99 45.231 105.728 43.4922 107.873 43.4922C110.018 43.4922 111.757 45.231 111.757 47.3759Z" stroke="#2E2D2C" stroke-width="2"/>
<rect x="38.4082" y="79.7715" width="41.2558" height="6.37209" rx="2" stroke="#2E2D2C" stroke-width="2" stroke-linejoin="round"/>
<path d="M104.385 52.957V105.98" stroke="#2E2D2C" stroke-width="2" stroke-linejoin="round"/>
<path d="M112.757 53.6553V106.679" stroke="#2E2D2C" stroke-width="2" stroke-linejoin="round"/>
<path d="M41.5942 85.748L38.8035 120.632H79.2686L76.4779 85.748" stroke="#2E2D2C" stroke-width="2" stroke-linejoin="round"/>
<path d="M42.2919 80.1664L45.0826 44.585" stroke="#2E2D2C" stroke-width="2" stroke-linejoin="round"/>
<path d="M75.0825 80.864L72.2918 44.585" stroke="#2E2D2C" stroke-width="2" stroke-linejoin="round"/>
<path d="M79.2686 44.5851H38.8035L41.5942 25.7478C43.6872 13.1895 74.3849 13.1896 76.4779 25.7478L79.2686 44.5851Z" stroke="#2E2D2C" stroke-width="2" stroke-linejoin="round"/>
<circle cx="59.7337" cy="32.7248" r="5.97674" stroke="#2E2D2C" stroke-width="2"/>
<circle cx="17.8732" cy="21.5617" r="5.97674" stroke="#2E2D2C" stroke-width="2"/>
<path d="M31.4688 5.91887L20.4587 44.4022L8.03225 40.9102C0.277191 36.2361 9.80717 2.32587 18.8617 2.37584L31.4688 5.91887Z" stroke="#2E2D2C" stroke-width="2" stroke-linejoin="round"/>
<path d="M27.6407 18.0732L42.2919 22.957" stroke="#2E2D2C" stroke-width="2" stroke-linejoin="round"/>
<path d="M24.85 29.9346L39.5011 34.8183" stroke="#2E2D2C" stroke-width="2" stroke-linejoin="round"/>
<rect x="98.4081" y="113.26" width="20.3256" height="7.76744" rx="1" stroke="#2E2D2C" stroke-width="2" stroke-linejoin="round"/>
<rect x="101.199" y="106.283" width="14.7442" height="7.76744" rx="1" stroke="#2E2D2C" stroke-width="2" stroke-linejoin="round"/>
</svg>
