<svg width="121" height="120" viewBox="0 0 121 120" fill="none" xmlns="http://www.w3.org/2000/svg">
<path d="M15.5007 6.58105H107.594C111.353 6.58105 114.189 8.93055 116.118 12.787C118.052 16.6557 118.975 21.8907 118.89 27.1928C118.804 32.4929 117.712 37.7396 115.729 41.6233C113.738 45.5206 110.978 47.8369 107.594 47.8369H15.5007C11.4391 47.8369 8.32235 45.4401 6.16954 41.5901C4.00727 37.7231 2.89539 32.4963 2.89539 27.209C2.89538 21.9216 4.00724 16.6948 6.1695 12.8278C8.32231 8.97778 11.4391 6.58105 15.5007 6.58105Z" stroke="#2E2D2C" stroke-width="2"/>
<path d="M119.151 27.209C119.151 33.0179 117.63 38.2304 115.224 41.9601C112.811 45.7 109.597 47.8369 106.198 47.8369C102.799 47.8369 99.5843 45.7 97.1714 41.9601C94.7652 38.2304 93.2443 33.0179 93.2443 27.209C93.2443 21.4 94.7652 16.1875 97.1714 12.4578C99.5843 8.71793 102.799 6.58105 106.198 6.58105C109.597 6.58105 112.811 8.71793 115.224 12.4578C117.63 16.1875 119.151 21.4 119.151 27.209Z" stroke="#2E2D2C" stroke-width="2"/>
<path d="M118.802 67.6738C118.802 73.4828 117.281 78.6953 114.875 82.4249C112.462 86.1648 109.248 88.3017 105.849 88.3017C102.45 88.3017 99.2354 86.1648 96.8226 82.4249C94.4164 78.6953 92.8954 73.4828 92.8954 67.6738C92.8954 61.8649 94.4164 56.6523 96.8226 52.9227C99.2354 49.1828 102.45 47.0459 105.849 47.0459C109.248 47.0459 112.462 49.1828 114.875 52.9227C117.281 56.6523 118.802 61.8649 118.802 67.6738Z" stroke="#2E2D2C" stroke-width="2"/>
<path d="M110.779 27.9064C110.779 29.6829 110.345 31.2428 109.696 32.3252C109.034 33.4276 108.26 33.8832 107.593 33.8832C106.926 33.8832 106.152 33.4276 105.491 32.3252C104.841 31.2428 104.407 29.6829 104.407 27.9064C104.407 26.1299 104.841 24.57 105.491 23.4876C106.152 22.3853 106.926 21.9297 107.593 21.9297C108.26 21.9297 109.034 22.3853 109.696 23.4876C110.345 24.57 110.779 26.1299 110.779 27.9064Z" stroke="#2E2D2C" stroke-width="2"/>
<path d="M110.43 68.3713C110.43 70.1478 109.996 71.7077 109.347 72.7901C108.685 73.8924 107.911 74.348 107.244 74.348C106.578 74.348 105.803 73.8924 105.142 72.7901C104.492 71.7077 104.058 70.1478 104.058 68.3713C104.058 66.5948 104.492 65.0349 105.142 63.9525C105.803 62.8501 106.578 62.3945 107.244 62.3945C107.911 62.3945 108.685 62.8501 109.347 63.9525C109.996 65.0349 110.43 66.5948 110.43 68.3713Z" stroke="#2E2D2C" stroke-width="2"/>
<path d="M23.8716 47.4414C17.2614 55.6628 15.0517 66.5281 13.4065 76.7437C11.5437 88.3104 12.7096 106.744 12.7134 106.744C12.7096 110.232 16.198 113.72 19.6855 113.72H58.7553M58.7553 113.72V100.465C58.7561 96.2786 61.5468 93.4879 65.0344 93.4879H78.2902M58.7553 113.72L78.2902 93.4879M78.2902 93.4879C78.2902 93.4879 78.2545 90.5111 78.2902 88.6042C78.5472 74.88 79.7356 58.8236 88.0582 47.4414" stroke="#2E2D2C" stroke-width="2" stroke-linejoin="round"/>
<path d="M102.042 47.4414L13.6961 47.4414C-0.174407 47.4414 -0.180928 87.9065 13.6961 87.9065M106.547 87.9065H78.8269" stroke="#2E2D2C" stroke-width="2" stroke-linejoin="round"/>
</svg>
