<svg width="242" height="242" viewBox="0 0 242 242" fill="none" xmlns="http://www.w3.org/2000/svg">
<path d="M206.222 206.116H170.495V150.133C170.495 136.783 170.223 119.603 151.877 119.603C133.25 119.603 130.405 134.129 130.405 149.148V206.116H94.6778V90.9936H128.997V106.686H129.46C134.255 97.6384 145.916 88.0884 163.337 88.0884C199.537 88.0884 206.232 111.913 206.232 142.925L206.222 206.116ZM54.3266 75.2411C51.6011 75.2425 48.9021 74.7063 46.3841 73.6633C43.8661 72.6203 41.5784 71.0909 39.6522 69.1628C37.7259 67.2346 36.1988 64.9455 35.1582 62.4265C34.1176 59.9075 33.5841 57.208 33.5881 54.4825C33.59 50.3788 34.8089 46.3678 37.0904 42.9569C39.3719 39.5459 42.6137 36.8881 46.4058 35.3195C50.1979 33.7509 54.3699 33.342 58.3944 34.1446C62.4188 34.9471 66.1149 36.925 69.0152 39.8282C71.9156 42.7313 73.8899 46.4293 74.6885 50.4545C75.4872 54.4798 75.0743 58.6514 73.502 62.442C71.9298 66.2325 69.2688 69.4717 65.8556 71.7499C62.4424 74.0282 58.4303 75.2431 54.3266 75.2411ZM72.2404 206.116H36.4128V90.9936H72.2404V206.116ZM224.095 0.52002H18.479C8.63745 0.52002 0.675781 8.30075 0.675781 17.901V224.402C0.675781 234.012 8.63745 241.783 18.479 241.783H224.065C233.897 241.783 241.939 234.012 241.939 224.402V17.901C241.939 8.30075 233.897 0.52002 224.065 0.52002H224.095Z" fill="white"/>
</svg>
