<svg width="320" height="477" viewBox="0 0 320 477" fill="none" xmlns="http://www.w3.org/2000/svg">
<path d="M1.55359 8.94515C3.18015 11.4008 6.48946 12.073 8.94515 10.4464C11.4008 8.81985 12.073 5.51054 10.4464 3.05485C8.81985 0.599169 5.51054 -0.0729687 3.05485 1.55359C0.599169 3.18015 -0.0729687 6.48946 1.55359 8.94515ZM84 6L84.8963 5.55665L84.621 5L84 5L84 6ZM309.554 473.945C311.18 476.401 314.489 477.073 316.945 475.446C319.401 473.82 320.073 470.511 318.446 468.055C316.82 465.599 313.511 464.927 311.055 466.554C308.599 468.18 307.927 471.489 309.554 473.945ZM6 7L84 7L84 5L6 5L6 7ZM83.1037 6.44336L313.104 471.443L314.896 470.557L84.8963 5.55665L83.1037 6.44336Z" fill="white"/>
</svg>
