<svg width="735" height="557" viewBox="0 0 735 557" fill="none" xmlns="http://www.w3.org/2000/svg">
<path opacity="0.4" d="M544.245 506L544.245 504.5L543.635 504.5L543.198 504.926L544.245 506ZM500.173 549L500.173 550.5L500.784 550.5L501.221 550.073L500.173 549ZM441.5 549C441.5 544.582 437.918 541 433.5 541C429.082 541 425.5 544.582 425.5 549C425.5 553.418 429.082 557 433.5 557C437.918 557 441.5 553.418 441.5 549ZM543.198 504.926L499.126 547.926L501.221 550.073L545.293 507.074L543.198 504.926ZM500.173 547.5L433.5 547.5L433.5 550.5L500.173 550.5L500.173 547.5ZM734.5 504.5L544.245 504.5L544.245 507.5L734.5 507.5L734.5 504.5Z" fill="white"/>
<path opacity="0.4" d="M536.245 50.9999L536.245 52.4999L535.635 52.4999L535.198 52.0735L536.245 50.9999ZM492.173 7.99986L492.173 6.49986L492.784 6.49986L493.221 6.92622L492.173 7.99986ZM433.5 7.99985C433.5 12.4181 429.918 15.9999 425.5 15.9999C421.082 15.9999 417.5 12.4181 417.5 7.99985C417.5 3.58157 421.082 -0.000148771 425.5 -0.000148385C429.918 -0.000147998 433.5 3.58157 433.5 7.99985ZM535.198 52.0735L491.126 9.0735L493.221 6.92622L537.293 49.9262L535.198 52.0735ZM492.173 9.49986L425.5 9.49985L425.5 6.49985L492.173 6.49986L492.173 9.49986ZM726.5 52.4999L536.245 52.4999L536.245 49.4999L726.5 49.4999L726.5 52.4999Z" fill="white"/>
<path opacity="0.4" d="M425.789 89.0007L425.789 90.5007L425.387 90.5007L425.039 90.2996L425.789 89.0007ZM351.347 46.0008L351.347 44.5008L351.749 44.5008L352.097 44.7019L351.347 46.0008ZM139.5 46.0008C139.5 50.4191 135.918 54.0008 131.5 54.0008C127.082 54.0008 123.5 50.4191 123.5 46.0008C123.5 41.5825 127.082 38.0008 131.5 38.0008C135.918 38.0008 139.5 41.5825 139.5 46.0008ZM649.5 90.5007L425.789 90.5007L425.789 87.5007L649.5 87.5007L649.5 90.5007ZM425.039 90.2996L350.597 47.2996L352.097 44.7019L426.539 87.7018L425.039 90.2996ZM351.347 47.5008L131.5 47.5008L131.5 44.5008L351.347 44.5008L351.347 47.5008Z" fill="white"/>
<path opacity="0.4" d="M419.971 471L419.971 469.5L419.561 469.5L419.208 469.709L419.971 471ZM347.254 514L347.254 515.5L347.664 515.5L348.017 515.291L347.254 514ZM140.5 514C140.5 509.582 136.918 506 132.5 506C128.082 506 124.5 509.582 124.5 514C124.5 518.418 128.082 522 132.5 522C136.918 522 140.5 518.418 140.5 514ZM638.5 469.5L419.971 469.5L419.971 472.5L638.5 472.5L638.5 469.5ZM419.208 469.709L346.49 512.709L348.017 515.291L420.735 472.291L419.208 469.709ZM347.254 512.5L132.5 512.5L132.5 515.5L347.254 515.5L347.254 512.5Z" fill="white"/>
<path opacity="0.4" d="M468.398 362L468.398 360.5L467.897 360.5L467.496 360.801L468.398 362ZM411.129 405.054L411.129 406.554L411.63 406.554L412.031 406.253L411.129 405.054ZM321.5 405.055C321.5 400.636 317.918 397.055 313.5 397.055C309.082 397.055 305.5 400.636 305.5 405.055C305.5 409.473 309.082 413.055 313.5 413.055C317.918 413.055 321.5 409.473 321.5 405.055ZM685 360.5L468.398 360.5L468.398 363.5L685 363.5L685 360.5ZM467.496 360.801L410.228 403.855L412.031 406.253L469.299 363.199L467.496 360.801ZM411.129 403.554L313.5 403.555L313.5 406.555L411.129 406.554L411.129 403.554Z" fill="white"/>
<path opacity="0.4" d="M459.898 336.946L459.898 335.446L459.397 335.446L458.996 335.747L459.898 336.946ZM402.629 380L402.629 381.5L403.13 381.5L403.531 381.199L402.629 380ZM241.5 380C241.5 375.582 237.918 372 233.5 372C229.081 372 225.5 375.582 225.5 380C225.5 384.418 229.081 388 233.5 388C237.918 388 241.5 384.418 241.5 380ZM632 335.446L459.898 335.446L459.898 338.446L632 338.446L632 335.446ZM458.996 335.747L401.728 378.801L403.531 381.199L460.799 338.145L458.996 335.747ZM402.629 378.5L233.5 378.5L233.5 381.5L402.629 381.5L402.629 378.5Z" fill="white"/>
<path opacity="0.4" d="M459.898 222.054L459.898 223.554L459.397 223.554L458.996 223.253L459.898 222.054ZM402.629 179L402.629 177.5L403.13 177.5L403.531 177.801L402.629 179ZM241.5 179C241.5 183.418 237.918 187 233.5 187C229.081 187 225.5 183.418 225.5 179C225.5 174.582 229.081 171 233.5 171C237.918 171 241.5 174.582 241.5 179ZM676.5 223.554L459.898 223.554L459.898 220.554L676.5 220.554L676.5 223.554ZM458.996 223.253L401.728 180.199L403.531 177.801L460.799 220.855L458.996 223.253ZM402.629 180.5L233.5 180.5L233.5 177.5L402.629 177.5L402.629 180.5Z" fill="white"/>
<path opacity="0.4" d="M467.898 198.055L467.898 199.555L467.397 199.555L466.996 199.254L467.898 198.055ZM410.629 155.001L410.629 153.501L411.13 153.501L411.531 153.802L410.629 155.001ZM321 155C321 159.418 317.418 163 313 163C308.582 163 305 159.418 305 155C305 150.582 308.582 147 313 147C317.418 147 321 150.582 321 155ZM684.5 199.555L467.898 199.555L467.898 196.555L684.5 196.555L684.5 199.555ZM466.996 199.254L409.728 156.2L411.531 153.802L468.799 196.856L466.996 199.254ZM410.629 156.501L313 156.5L313 153.5L410.629 153.501L410.629 156.501Z" fill="white"/>
<path opacity="0.4" d="M16.5 280C16.5 275.582 12.9183 272 8.5 272C4.08173 272 0.5 275.582 0.5 280C0.5 284.418 4.08173 288 8.5 288C12.9183 288 16.5 284.418 16.5 280ZM611.5 278.5L8.5 278.5V281.5L611.5 281.5V278.5Z" fill="white"/>
<path opacity="0.4" d="M381.528 297.138L381.528 295.638L380.918 295.638L380.481 296.064L381.528 297.138ZM337.521 340L337.521 341.5L338.131 341.5L338.567 341.075L337.521 340ZM278.5 340C278.5 335.582 274.918 332 270.5 332C266.082 332 262.5 335.582 262.5 340C262.5 344.418 266.082 348 270.5 348C274.918 348 278.5 344.418 278.5 340ZM380.481 296.064L336.474 338.925L338.567 341.075L382.574 298.213L380.481 296.064ZM337.521 338.5L270.5 338.5L270.5 341.5L337.521 341.5L337.521 338.5ZM571.5 295.638L381.528 295.638L381.528 298.638L571.5 298.638L571.5 295.638Z" fill="white"/>
<path opacity="0.4" d="M381.245 262L381.245 263.5L380.635 263.5L380.198 263.074L381.245 262ZM337.173 219L337.173 217.5L337.784 217.5L338.221 217.926L337.173 219ZM278.5 219C278.5 223.418 274.918 227 270.5 227C266.082 227 262.5 223.418 262.5 219C262.5 214.582 266.082 211 270.5 211C274.918 211 278.5 214.582 278.5 219ZM380.198 263.074L336.126 220.074L338.221 217.926L382.293 260.926L380.198 263.074ZM337.173 220.5L270.5 220.5L270.5 217.5L337.173 217.5L337.173 220.5ZM624 263.5L381.245 263.5L381.245 260.5L624 260.5L624 263.5Z" fill="white"/>
</svg>
