<svg width="213" height="22" viewBox="0 0 213 22" fill="none" xmlns="http://www.w3.org/2000/svg">
<path d="M198.031 3.22211H199.498C199.887 3.20263 200.274 3.29501 200.613 3.4885C200.952 3.68199 201.23 3.96863 201.414 4.31507C201.778 4.94983 202.139 5.58723 202.497 6.22728L202.859 6.86798C203.457 7.92591 204.053 8.98053 204.647 10.0318C204.68 10.0913 204.712 10.1528 204.745 10.2203L204.791 10.3095C204.812 10.3502 204.829 10.3936 204.84 10.4385L208.057 16.2386C208.389 16.8217 208.717 17.4056 209.041 17.9901C209.925 17.9901 210.808 17.9901 211.692 17.9901H213L203.593 1.36346C203.378 0.942309 203.048 0.591524 202.643 0.352004C202.237 0.112484 201.773 -0.00590353 201.303 0.0106412C200.169 0.0106412 199.035 0.0106412 197.901 0.0106412H196.119C195.23 0.0106412 194.634 0.36769 194.182 1.16907C192.032 4.98355 189.831 8.85357 187.703 12.5966C186.933 13.9495 186.165 15.3016 185.398 16.6531L184.639 17.9901H188.608C189.088 17.1371 189.577 16.2584 190.101 15.3082L192.744 10.4821C192.756 10.4251 192.775 10.3698 192.801 10.3175L192.844 10.2381C192.876 10.1747 192.905 10.1152 192.939 10.0576C193.252 9.49693 193.566 8.93557 193.881 8.37354C194.595 7.09808 195.332 5.78096 196.044 4.48368C196.495 3.67238 197.132 3.25186 197.94 3.23202H198.001" fill="#2E2D2C"/>
<path d="M198.935 14.9869C198.641 14.9869 198.354 15.0748 198.109 15.2396C197.865 15.4044 197.674 15.6386 197.562 15.9126C197.449 16.1866 197.42 16.4882 197.477 16.7791C197.534 17.07 197.676 17.3372 197.884 17.5469C198.092 17.7566 198.357 17.8994 198.645 17.9573C198.934 18.0152 199.233 17.9855 199.504 17.872C199.776 17.7585 200.008 17.5663 200.172 17.3196C200.335 17.073 200.422 16.7831 200.422 16.4865C200.423 16.2895 200.384 16.0944 200.31 15.9123C200.235 15.7303 200.126 15.5648 199.987 15.4255C199.849 15.2862 199.685 15.1758 199.505 15.1005C199.324 15.0252 199.131 14.9866 198.935 14.9869Z" fill="#2E2D2C"/>
<path d="M121.05 0.0542817H120.938C120.526 0.0688995 120.136 0.244264 119.849 0.543429C119.563 0.842593 119.403 1.24219 119.403 1.65803C119.403 2.07387 119.563 2.47347 119.849 2.77263C120.136 3.07179 120.526 3.24716 120.938 3.26178H121.05C121.462 3.24716 121.853 3.07179 122.139 2.77263C122.425 2.47347 122.586 2.07387 122.586 1.65803C122.586 1.24219 122.425 0.842593 122.139 0.543429C121.853 0.244264 121.462 0.0688995 121.05 0.0542817Z" fill="#2E2D2C"/>
<path d="M118.149 14.7588H117.795C117.144 14.7588 116.56 14.4692 116.011 13.8939C115.941 13.8205 115.87 13.7412 115.795 13.6539C114.981 12.7084 114.169 11.7615 113.358 10.8134C111.014 8.07997 108.589 5.25927 106.189 2.48222C105.693 1.92393 105.139 1.42055 104.537 0.980624C103.711 0.363722 102.688 0.0562639 101.406 0.040395C100.731 0.040395 100.014 0.0284938 99.0773 0.0284938H96.7899V17.9921H100.071V3.90844C100.071 3.76066 100.123 3.61776 100.218 3.50541C100.313 3.39306 100.445 3.31863 100.59 3.2955C100.806 3.26073 101.024 3.24283 101.243 3.24195C101.705 3.23602 102.163 3.33741 102.58 3.53828C102.998 3.73914 103.364 4.0341 103.65 4.40037C104.592 5.54293 105.574 6.68946 106.524 7.79631C106.874 8.20494 107.223 8.61422 107.572 9.02417C108.109 9.65363 108.646 10.2838 109.181 10.9145C110.557 12.5411 111.993 14.2252 113.417 15.8736C113.936 16.5008 114.581 17.0106 115.308 17.3699C116.036 17.7291 116.83 17.9296 117.64 17.9584C118.474 17.9941 119.329 17.998 120.157 18H121.009C121.52 18 122.03 18 122.549 18H122.643V14.7568H118.149V14.7588Z" fill="#2E2D2C"/>
<path d="M25.529 3.00788C25.8236 3.00827 26.1116 2.92054 26.3567 2.75578C26.6018 2.59102 26.7929 2.35664 26.9059 2.0823C27.0189 1.80795 27.0487 1.50597 26.9915 1.21456C26.9342 0.923146 26.7926 0.6554 26.5845 0.4452C26.3763 0.235 26.111 0.0917894 25.8222 0.0336891C25.5333 -0.0244111 25.2338 0.00521386 24.9617 0.118807C24.6895 0.232401 24.4568 0.424858 24.2932 0.671837C24.1295 0.918815 24.0421 1.20922 24.0421 1.50629C24.0421 1.90419 24.1987 2.28582 24.4775 2.56737C24.7563 2.84892 25.1345 3.00735 25.529 3.00788Z" fill="#2E2D2C"/>
<path d="M37.2649 0.0126215C36.783 0.86359 36.2933 1.74432 35.7701 2.69447L33.1267 7.52059C33.1151 7.57806 33.0952 7.63352 33.0677 7.68523L33.0284 7.76457C32.995 7.82805 32.9655 7.88756 32.934 7.9431L31.988 9.63313C31.276 10.9066 30.5384 12.2217 29.8245 13.519C29.3741 14.3303 28.7369 14.7509 27.9285 14.7707H26.302C25.927 14.7738 25.5584 14.6734 25.236 14.4804C24.9136 14.2874 24.6497 14.0091 24.4728 13.6757C24.107 13.041 23.7471 12.4023 23.3872 11.7635L22.7066 10.5615L21.2375 7.95897C21.204 7.89946 21.1726 7.83797 21.1391 7.77052L21.0939 7.68126C21.0721 7.64058 21.0556 7.59725 21.0447 7.55233L17.829 1.75622C17.4966 1.16113 17.1642 0.587869 16.8358 0.000720366C15.9507 0.000720366 15.067 0.000720366 14.1845 0.000720366H12.8766L18.5469 10.0199C18.5997 10.1133 18.6274 10.2189 18.6274 10.3264C18.6274 10.4339 18.5997 10.5395 18.5469 10.6329C18.0106 11.5903 17.475 12.5504 16.94 13.5131C16.4896 14.3244 15.8524 14.7449 15.044 14.7647H13.4175C13.0425 14.7681 12.6738 14.6678 12.3514 14.4747C12.0289 14.2817 11.7651 14.0033 11.5884 13.6698C11.2225 13.035 10.8626 12.3963 10.5027 11.7576L10.1408 11.1169L8.35298 7.96095C8.31954 7.90144 8.28808 7.83995 8.25464 7.77251L8.20744 7.68325C8.18711 7.64212 8.17128 7.59889 8.16023 7.55431L4.94256 1.75622C4.61082 1.17304 4.28303 0.588532 3.95916 0.00270591C3.0741 0.00270591 2.19035 0.00270591 1.30792 0.00270591H0L4.18927 7.40356C5.93054 10.4782 7.66984 13.5534 9.40718 16.6293C9.6195 17.0501 9.94584 17.4016 10.3483 17.6428C10.7508 17.884 11.2128 18.0051 11.6808 17.9921C12.815 17.9921 13.9492 17.9921 15.0834 17.9921H16.8653C17.7543 17.9921 18.3502 17.635 18.8026 16.8336C19.1133 16.2822 19.4254 15.7308 19.7388 15.1793L20.0593 14.61C20.1129 14.5147 20.1905 14.4354 20.2843 14.3803C20.3781 14.3251 20.4847 14.2961 20.5933 14.2961C20.7019 14.2961 20.8086 14.3251 20.9024 14.3803C20.9962 14.4354 21.0738 14.5147 21.1273 14.61L22.274 16.6373C22.4885 17.0591 22.8178 17.4106 23.2232 17.6505C23.6287 17.8904 24.0935 18.0089 24.5633 17.9921C25.6988 17.9921 26.833 17.9921 27.9659 17.9921H29.7478C30.6368 17.9921 31.2347 17.635 31.6851 16.8336C33.8348 13.0192 36.0356 9.14913 38.1637 5.40804C38.9321 4.05522 39.7004 2.7024 40.4688 1.34958C40.7225 0.90525 40.9743 0.460922 41.228 0.0106421H39.9436C39.0494 0.0106421 38.1552 0.0106421 37.2609 0.0106421" fill="#2E2D2C"/>
<path d="M141.818 0.0185782V3.07929H159.979C160.115 3.07986 160.248 3.12603 160.355 3.21058C160.463 3.29512 160.539 3.41325 160.573 3.54644C160.607 3.67962 160.596 3.82034 160.542 3.94652C160.488 4.07271 160.393 4.17722 160.274 4.24367L144.666 12.801C143.914 13.1774 143.221 13.6611 142.606 14.2371C142.016 14.8322 141.733 15.4273 141.723 16.0858C141.723 16.6492 141.723 17.2244 141.723 17.7818V17.9703H142.984C143.031 17.9701 143.078 17.9761 143.124 17.9881H166.833V14.9214H146.88C147.075 14.7103 147.301 14.5315 147.551 14.3918L152.519 11.7278L161.348 6.97113L162.422 6.39588C163.329 5.91387 164.265 5.40408 165.175 4.89628L165.201 4.88239C165.701 4.58624 166.115 4.16282 166.401 3.65454C166.688 3.14626 166.837 2.57098 166.833 1.98632V0.0185782H141.818Z" fill="#2E2D2C"/>
<path d="M57.7195 14.7707C57.5256 14.7709 57.3318 14.759 57.1393 14.735C56.7769 14.709 56.4386 14.5424 56.1955 14.2702C55.9523 13.9979 55.8232 13.6412 55.8353 13.275C55.8353 13.0172 55.8353 12.7593 55.8353 12.5114C55.8353 12.4062 55.8353 12.2991 55.8353 12.194V5.59054C55.8344 5.5727 55.8344 5.55482 55.8353 5.53698C55.8353 5.27713 55.8353 4.9419 55.8353 4.61659C55.8375 4.31052 55.9447 4.01465 56.1387 3.77925C56.3326 3.54386 56.6014 3.38344 56.8994 3.32525C57.1705 3.26394 57.4476 3.23399 57.7254 3.23599H77.8595V0.000721333H57.4049C56.6562 -0.009076 55.9096 0.0809674 55.1843 0.26851C54.0043 0.583904 53.2608 1.13336 52.8242 1.99822C52.5096 2.662 52.3617 3.39361 52.3935 4.12861C52.3935 5.73798 52.3935 7.34603 52.3935 8.95276C52.3935 10.5833 52.3935 12.2145 52.3935 13.8463C52.392 14.1494 52.4111 14.4523 52.4505 14.7528C52.6373 16.1195 53.3336 17.026 54.5805 17.5299C55.3889 17.8552 56.2995 18 57.5307 18H77.9323V14.7707H57.7195Z" fill="#2E2D2C"/>
<path d="M76.1072 8.98833C76.1068 8.56388 75.9421 8.15635 75.6482 7.85253C75.3543 7.54872 74.9545 7.37263 74.5337 7.36178H62.9296C62.5009 7.36178 62.0897 7.53357 61.7865 7.83935C61.4833 8.14513 61.3129 8.55986 61.3129 8.9923C61.3129 9.42475 61.4833 9.83948 61.7865 10.1453C62.0897 10.451 62.5009 10.6228 62.9296 10.6228H74.5337C74.9543 10.6115 75.3539 10.4352 75.6477 10.1315C75.9415 9.82782 76.1063 9.42057 76.1072 8.99627" fill="#2E2D2C"/>
</svg>
