<svg width="25" height="25" viewBox="0 0 25 25" fill="none" xmlns="http://www.w3.org/2000/svg">
<path fill-rule="evenodd" clip-rule="evenodd" d="M12.8965 20.6377C14.4188 19.8508 19.7904 16.7027 19.7904 11.4582C19.7904 7.43109 16.5258 4.1665 12.4987 4.1665C8.47162 4.1665 5.20703 7.43109 5.20703 11.4582C5.20703 16.7027 10.5785 19.8508 12.1009 20.6377C12.354 20.7685 12.6434 20.7685 12.8965 20.6377ZM12.4987 14.5832C14.2246 14.5832 15.6237 13.1841 15.6237 11.4582C15.6237 9.73228 14.2246 8.33317 12.4987 8.33317C10.7728 8.33317 9.3737 9.73228 9.3737 11.4582C9.3737 13.1841 10.7728 14.5832 12.4987 14.5832Z" fill="#333333"/>
<path d="M12.8965 20.6377L13.172 21.1707H13.172L12.8965 20.6377ZM12.1009 20.6377L11.8254 21.1707H11.8254L12.1009 20.6377ZM19.1904 11.4582C19.1904 13.8622 17.9609 15.817 16.489 17.2963C15.0177 18.775 13.3553 19.7251 12.621 20.1047L13.172 21.1707C13.96 20.7634 15.7445 19.7459 17.3396 18.1427C18.9341 16.5402 20.3904 14.2987 20.3904 11.4582H19.1904ZM12.4987 4.7665C16.1944 4.7665 19.1904 7.76247 19.1904 11.4582H20.3904C20.3904 7.09972 16.8571 3.5665 12.4987 3.5665V4.7665ZM5.80703 11.4582C5.80703 7.76247 8.80299 4.7665 12.4987 4.7665V3.5665C8.14025 3.5665 4.60703 7.09972 4.60703 11.4582H5.80703ZM12.3764 20.1047C11.6421 19.7251 9.97965 18.775 8.50842 17.2963C7.03653 15.817 5.80703 13.8622 5.80703 11.4582H4.60703C4.60703 14.2987 6.06329 16.5402 7.65775 18.1427C9.25287 19.7459 11.0374 20.7634 11.8254 21.1707L12.3764 20.1047ZM12.621 20.1047C12.5407 20.1462 12.4567 20.1462 12.3764 20.1047L11.8254 21.1707C12.2513 21.3908 12.7461 21.3908 13.172 21.1707L12.621 20.1047ZM15.0237 11.4582C15.0237 12.8527 13.8932 13.9832 12.4987 13.9832V15.1832C14.556 15.1832 16.2237 13.5154 16.2237 11.4582H15.0237ZM12.4987 8.93317C13.8932 8.93317 15.0237 10.0637 15.0237 11.4582H16.2237C16.2237 9.40091 14.556 7.73317 12.4987 7.73317V8.93317ZM9.9737 11.4582C9.9737 10.0637 11.1042 8.93317 12.4987 8.93317V7.73317C10.4414 7.73317 8.7737 9.40091 8.7737 11.4582H9.9737ZM12.4987 13.9832C11.1042 13.9832 9.9737 12.8527 9.9737 11.4582H8.7737C8.7737 13.5154 10.4414 15.1832 12.4987 15.1832V13.9832Z" fill="#333333"/>
</svg>
