<svg width="666" height="803" viewBox="0 0 666 803" fill="none" xmlns="http://www.w3.org/2000/svg">
<path d="M0.666667 711C0.666667 708.054 3.05448 705.667 6 705.667C8.94552 705.667 11.3333 708.054 11.3333 711C11.3333 713.946 8.94552 716.333 6 716.333C3.05448 716.333 0.666667 713.946 0.666667 711ZM143.49 797V798H143.203L142.96 797.848L143.49 797ZM203.667 797C203.667 794.054 206.054 791.667 209 791.667C211.946 791.667 214.333 794.054 214.333 797C214.333 799.946 211.946 802.333 209 802.333C206.054 802.333 203.667 799.946 203.667 797ZM6.5303 710.152L144.02 796.152L142.96 797.848L5.4697 711.848L6.5303 710.152ZM143.49 796H209V798H143.49V796Z" fill="white"/>
<path opacity="0.4" d="M115.33 103V101.5H114.723L114.287 101.922L115.33 103ZM174.003 103C174.003 107.418 177.585 111 182.003 111C186.422 111 190.003 107.418 190.003 103C190.003 98.5817 186.422 95 182.003 95C177.585 95 174.003 98.5817 174.003 103ZM75.0432 144.078L116.373 104.078L114.287 101.922L72.9568 141.922L75.0432 144.078ZM115.33 104.5H182.003V101.5H115.33V104.5Z" fill="white"/>
<path opacity="0.4" d="M115.33 684V685.5H114.729L114.294 685.085L115.33 684ZM174.003 684C174.003 679.582 177.585 676 182.003 676C186.422 676 190.003 679.582 190.003 684C190.003 688.418 186.422 692 182.003 692C177.585 692 174.003 688.418 174.003 684ZM86.5362 654.415L116.366 682.915L114.294 685.085L84.4638 656.585L86.5362 654.415ZM115.33 682.5H182.003V685.5H115.33V682.5Z" fill="white"/>
<path opacity="0.4" d="M229.783 180.862V179.362H229.157L228.716 179.807L229.783 180.862ZM299.147 180.862V182.362H299.692L300.109 182.013L299.147 180.862ZM350.46 138V136.5H349.916L349.498 136.849L350.46 138ZM494 138C494 142.418 497.582 146 502 146C506.418 146 510 142.418 510 138C510 133.582 506.418 130 502 130C497.582 130 494 133.582 494 138ZM200.567 212.554L230.85 181.916L228.716 179.807L198.433 210.446L200.567 212.554ZM229.783 182.362L299.147 182.362V179.362L229.783 179.362V182.362ZM300.109 182.013L351.422 139.151L349.498 136.849L298.186 179.711L300.109 182.013ZM350.46 139.5H502V136.5H350.46V139.5Z" fill="white"/>
<path opacity="0.4" d="M228.969 608.138V609.638H228.344L227.904 609.195L228.969 608.138ZM298.568 608.138V606.638H299.111L299.528 606.985L298.568 608.138ZM350.055 651V652.5H349.512L349.095 652.153L350.055 651ZM494 651C494 646.582 497.582 643 502 643C506.418 643 510 646.582 510 651C510 655.418 506.418 659 502 659C497.582 659 494 655.418 494 651ZM206.564 583.443L230.033 607.081L227.904 609.195L204.436 585.557L206.564 583.443ZM228.969 606.638L298.568 606.638V609.638L228.969 609.638V606.638ZM299.528 606.985L351.014 649.847L349.095 652.153L297.609 609.291L299.528 606.985ZM350.055 649.5H502V652.5H350.055V649.5Z" fill="white"/>
<path opacity="0.4" d="M650 393C650 397.418 653.582 401 658 401C662.418 401 666 397.418 666 393C666 388.582 662.418 385 658 385C653.582 385 650 388.582 650 393ZM279.5 394.5H658V391.5H279.5V394.5Z" fill="white"/>
<path opacity="0.4" d="M284.976 372.862V374.362H285.586L286.022 373.936L284.976 372.862ZM328.983 330V328.5H328.373L327.936 328.925L328.983 330ZM388.003 330C388.003 334.418 391.585 338 396.003 338C400.422 338 404.003 334.418 404.003 330C404.003 325.582 400.422 322 396.003 322C391.585 322 388.003 325.582 388.003 330ZM286.022 373.936L330.029 331.075L327.936 328.925L283.929 371.787L286.022 373.936ZM328.983 331.5H396.003V328.5H328.983V331.5ZM278.336 374.362H284.976V371.362H278.336V374.362Z" fill="white"/>
<path d="M292.667 302C292.667 304.946 295.054 307.333 298 307.333C300.946 307.333 303.333 304.946 303.333 302C303.333 299.054 300.946 296.667 298 296.667C295.054 296.667 292.667 299.054 292.667 302ZM350.898 265V264H350.583L350.325 264.181L350.898 265ZM440.667 265C440.667 267.946 443.054 270.333 446 270.333C448.946 270.333 451.333 267.946 451.333 265C451.333 262.054 448.946 259.667 446 259.667C443.054 259.667 440.667 262.054 440.667 265ZM298.573 302.819L351.472 265.819L350.325 264.181L297.427 301.181L298.573 302.819ZM350.898 266H446V264H350.898V266Z" fill="white"/>
<path opacity="0.4" d="M285.255 411V409.5H285.865L286.302 409.926L285.255 411ZM329.327 454V455.5H328.716L328.279 455.074L329.327 454ZM388 454C388 449.582 391.582 446 396 446C400.418 446 404 449.582 404 454C404 458.418 400.418 462 396 462C391.582 462 388 458.418 388 454ZM286.302 409.926L330.374 452.926L328.279 455.074L284.207 412.074L286.302 409.926ZM329.327 452.5H396V455.5H329.327V452.5ZM279.5 409.5H285.255V412.5H279.5V409.5Z" fill="white"/>
<path d="M9.66667 92C9.66667 94.9455 12.0545 97.3333 15 97.3333C17.9455 97.3333 20.3333 94.9455 20.3333 92C20.3333 89.0545 17.9455 86.6667 15 86.6667C12.0545 86.6667 9.66667 89.0545 9.66667 92ZM152.49 6V5H152.203L151.96 5.15219L152.49 6ZM212.667 6C212.667 8.94552 215.054 11.3333 218 11.3333C220.946 11.3333 223.333 8.94552 223.333 6C223.333 3.05448 220.946 0.666667 218 0.666667C215.054 0.666667 212.667 3.05448 212.667 6ZM15.5303 92.8478L153.02 6.84781L151.96 5.15219L14.4697 91.1522L15.5303 92.8478ZM152.49 7H218V5H152.49V7Z" fill="white"/>
<path d="M301.667 487C301.667 484.054 304.054 481.667 307 481.667C309.946 481.667 312.333 484.054 312.333 487C312.333 489.946 309.946 492.333 307 492.333C304.054 492.333 301.667 489.946 301.667 487ZM359.898 524V525H359.583L359.325 524.819L359.898 524ZM449.667 524C449.667 521.054 452.054 518.667 455 518.667C457.946 518.667 460.333 521.054 460.333 524C460.333 526.946 457.946 529.333 455 529.333C452.054 529.333 449.667 526.946 449.667 524ZM307.573 486.181L360.472 523.181L359.325 524.819L306.427 487.819L307.573 486.181ZM359.898 523H455V525H359.898V523Z" fill="white"/>
</svg>
