<svg width="247" height="275" viewBox="0 0 247 275" fill="none" xmlns="http://www.w3.org/2000/svg">
<path opacity="0.4" d="M223 97.4923L222.5 97.4923L222.5 97.6894L222.634 97.8335L223 97.4923ZM244 119.995L244.5 119.995L244.5 119.798L244.366 119.654L244 119.995ZM244 151.37C242.527 151.37 241.333 152.564 241.333 154.037C241.333 155.509 242.527 156.703 244 156.703C245.473 156.703 246.667 155.509 246.667 154.037C246.667 152.564 245.473 151.37 244 151.37ZM222.634 97.8335L243.634 120.336L244.366 119.654L223.366 97.1512L222.634 97.8335ZM243.5 119.995L243.5 154.037L244.5 154.037L244.5 119.995L243.5 119.995ZM222.5 0.352538L222.5 97.4923L223.5 97.4923L223.5 0.352538L222.5 0.352538Z" fill="white"/>
<path opacity="0.4" d="M23 101.753L23.5 101.753L23.5 101.942L23.375 102.084L23 101.753ZM3 124.427L2.5 124.427L2.5 124.238L2.62502 124.097L3 124.427ZM2.99999 156.062C4.47275 156.062 5.66666 157.256 5.66666 158.729C5.66666 160.202 4.47275 161.396 2.99999 161.396C1.52724 161.396 0.333328 160.202 0.333328 158.729C0.333328 157.256 1.52724 156.062 2.99999 156.062ZM23.375 102.084L3.37497 124.758L2.62502 124.097L22.625 101.423L23.375 102.084ZM3.5 124.427L3.49999 158.729L2.49999 158.729L2.5 124.427L3.5 124.427ZM23.5 3.87195L23.5 101.753L22.5 101.753L22.5 3.87195L23.5 3.87195Z" fill="white"/>
<path opacity="0.4" d="M42 101.012L42.5 101.012L42.5 101.233L42.3359 101.382L42 101.012ZM21 120.063L20.5 120.063L20.5 119.842L20.6641 119.693L21 120.063ZM21 173.66C22.4728 173.66 23.6667 174.854 23.6667 176.327C23.6667 177.799 22.4728 178.993 21 178.993C19.5273 178.993 18.3334 177.799 18.3334 176.327C18.3334 174.854 19.5273 173.66 21 173.66ZM42.5 43.7594L42.5 101.012L41.5 101.012L41.5 43.7594L42.5 43.7594ZM42.3359 101.382L21.336 120.433L20.6641 119.693L41.664 100.641L42.3359 101.382ZM21.5 120.063L21.5 176.327L20.5 176.327L20.5 120.063L21.5 120.063Z" fill="white"/>
<path opacity="0.4" d="M206 102.345L205.5 102.345L205.5 102.569L205.667 102.718L206 102.345ZM227 121.059L227.5 121.059L227.5 120.835L227.333 120.686L227 121.059ZM227 173.66C225.527 173.66 224.333 174.854 224.333 176.327C224.333 177.799 225.527 178.993 227 178.993C228.473 178.993 229.667 177.799 229.667 176.327C229.667 174.854 228.473 173.66 227 173.66ZM205.5 46.1058L205.5 102.345L206.5 102.345L206.5 46.1058L205.5 46.1058ZM205.667 102.718L226.667 121.432L227.333 120.686L206.333 101.972L205.667 102.718ZM226.5 121.059L226.5 176.327L227.5 176.327L227.5 121.059L226.5 121.059Z" fill="white"/>
<path opacity="0.4" d="M175 129.742L174.5 129.742L174.5 129.914L174.607 130.05L175 129.742ZM196 156.507L196.5 156.507L196.5 156.335L196.393 156.199L196 156.507ZM196 199.469C194.527 199.469 193.333 200.663 193.333 202.136C193.333 203.609 194.527 204.803 196 204.803C197.473 204.803 198.667 203.609 198.667 202.136C198.667 200.663 197.473 199.469 196 199.469ZM174.5 28.5084L174.5 129.742L175.5 129.742L175.5 28.5084L174.5 28.5084ZM174.607 130.05L195.606 156.816L196.393 156.199L175.393 129.433L174.607 130.05ZM195.5 156.507L195.5 202.136L196.5 202.136L196.5 156.507L195.5 156.507Z" fill="white"/>
<path opacity="0.4" d="M151 141.116L150.5 141.116L150.5 141.281L150.598 141.413L151 141.116ZM172 169.609L172.5 169.609L172.5 169.445L172.402 169.312L172 169.609ZM172 251.088C170.527 251.088 169.333 252.282 169.333 253.755C169.333 255.228 170.527 256.422 172 256.422C173.473 256.422 174.667 255.228 174.667 253.755C174.667 252.282 173.473 251.088 172 251.088ZM150.5 55.4911L150.5 141.116L151.5 141.116L151.5 55.4911L150.5 55.4911ZM150.598 141.413L171.598 169.906L172.402 169.312L151.402 140.82L150.598 141.413ZM171.5 169.609L171.5 253.755L172.5 253.755L172.5 169.609L171.5 169.609Z" fill="white"/>
<path opacity="0.4" d="M96 141.04L96.5 141.04L96.5 141.204L96.4026 141.336L96 141.04ZM75 169.552L74.5 169.552L74.5 169.387L74.5974 169.255L75 169.552ZM75 251.089C76.4728 251.089 77.6667 252.282 77.6667 253.755C77.6667 255.228 76.4728 256.422 75 256.422C73.5273 256.422 72.3334 255.228 72.3334 253.755C72.3334 252.282 73.5273 251.089 75 251.089ZM96.5 33.201L96.5 141.04L95.5 141.04L95.5 33.201L96.5 33.201ZM96.4026 141.336L75.4026 169.848L74.5974 169.255L95.5974 140.743L96.4026 141.336ZM75.5 169.552L75.5 253.755L74.5 253.755L74.5 169.552L75.5 169.552Z" fill="white"/>
<path opacity="0.4" d="M73 129.742L73.5 129.742L73.5 129.914L73.3934 130.05L73 129.742ZM52.0004 156.507L51.5004 156.507L51.5004 156.335L51.607 156.199L52.0004 156.507ZM52 199.469C53.4728 199.469 54.6667 200.663 54.6667 202.136C54.6667 203.609 53.4728 204.803 52 204.803C50.5273 204.803 49.3334 203.609 49.3333 202.136C49.3333 200.663 50.5273 199.469 52 199.469ZM73.5 28.5084L73.5 129.742L72.5 129.742L72.5 28.5084L73.5 28.5084ZM73.3934 130.05L52.3938 156.816L51.607 156.199L72.6066 129.433L73.3934 130.05ZM52.5004 156.507L52.5 202.136L51.5 202.136L51.5004 156.507L52.5004 156.507Z" fill="white"/>
<path opacity="0.4" d="M124 268.686C122.527 268.686 121.333 269.88 121.333 271.353C121.333 272.825 122.527 274.019 124 274.019C125.473 274.019 126.667 272.825 126.667 271.353C126.667 269.88 125.473 268.686 124 268.686ZM123.5 69.569L123.5 271.353L124.5 271.353L124.5 69.569L123.5 69.569Z" fill="white"/>
<path opacity="0.4" d="M132 187.249L131.5 187.249L131.5 187.445L131.633 187.589L132 187.249ZM153 209.889L153.5 209.889L153.5 209.693L153.367 209.549L153 209.889ZM153 241.703C151.527 241.703 150.333 242.897 150.333 244.37C150.333 245.843 151.527 247.037 153 247.037C154.473 247.037 155.667 245.843 155.667 244.37C155.667 242.897 154.473 241.703 153 241.703ZM131.633 187.589L152.633 210.229L153.367 209.549L132.367 186.909L131.633 187.589ZM152.5 209.889L152.5 244.37L153.5 244.37L153.5 209.889L152.5 209.889ZM131.5 89.5127L131.5 187.249L132.5 187.249L132.5 89.5127L131.5 89.5127Z" fill="white"/>
<path opacity="0.4" d="M115 187.403L115.5 187.403L115.5 187.599L115.367 187.742L115 187.403ZM94 210.073L93.5 210.073L93.5 209.877L93.6332 209.734L94 210.073ZM94 241.703C95.4728 241.703 96.6667 242.897 96.6667 244.37C96.6667 245.843 95.4728 247.037 94 247.037C92.5272 247.037 91.3333 245.843 91.3333 244.37C91.3333 242.897 92.5272 241.703 94 241.703ZM115.367 187.742L94.3668 210.413L93.6332 209.734L114.633 187.063L115.367 187.742ZM94.5 210.073L94.5 244.37L93.5 244.37L93.5 210.073L94.5 210.073ZM115.5 62.53L115.5 187.403L114.5 187.403L114.5 62.53L115.5 62.53Z" fill="white"/>
</svg>
