<svg width="223" height="209" viewBox="0 0 223 209" fill="none" xmlns="http://www.w3.org/2000/svg">
<path d="M76.4978 30.1258L98.0799 8.54374L139.165 49.6289L129.945 58.849M129.945 58.849C129.945 58.849 103.596 73.3952 75.6986 79.1874C57.1892 83.2237 38.9904 88.5469 21.2342 95.1185L9.24756 92.2883L34.5038 114.641L53.9134 136.954C57.6952 134.424 61.0625 131.326 63.8971 127.768C66.7727 124.078 69.0987 119.991 70.8029 115.631M129.945 58.849C129.945 58.849 114.022 84.8202 88.7976 97.301C68.8407 107.178 34.4959 114.648 34.4959 114.648L50.7403 124.64M50.7403 124.64L49.1907 131.549M50.7403 124.64C50.7403 124.64 67.061 117.507 74.9631 112.491C87.3842 104.6 98.6228 91.511 98.6228 91.511M114.063 66.5169L103.066 55.5199C103.066 55.5199 70.82 62.407 50.8377 68.5453C30.8555 74.6837 9.20792 92.3439 9.20792 92.3439M33.659 76.0429C38.8611 67.1541 45.5323 59.2158 53.3907 52.5631M53.3907 52.5631C65.6555 42.611 83.2972 35.735 83.2972 35.735M53.3907 52.5631C55.7016 48.6879 58.3374 45.017 61.2699 41.5897C65.8782 36.3116 74.9195 28.8173 74.9195 28.8173L83.2972 35.735M83.2972 35.735C83.2972 35.735 108.026 38.1199 113.251 37.6797C118.476 37.2394 120.709 36.3621 121.15 37.6439C122.591 41.418 103.059 55.5756 103.059 55.5756M28.6442 109.463L31.1631 102.064L21.2263 95.1264M34.4799 114.632C34.4799 114.632 42.4185 108.289 39.9099 103.987C37.4014 99.6853 31.1551 102.056 31.1551 102.056" stroke="#2E2D2C" stroke-width="2" stroke-linecap="round" stroke-linejoin="round"/>
<path d="M175.05 87.1468C175.05 87.1468 156.199 107.037 139.476 117.038C114.212 132.092 101.892 144.744 101.892 144.744" stroke="#2E2D2C" stroke-width="2" stroke-linecap="round" stroke-linejoin="round"/>
<path d="M180.683 135.399C180.683 135.399 155.521 139.391 134.7 143.307C117.227 146.596 92.8093 162.994 92.8093 162.994L133.689 198.785C140.103 195.142 154.47 175.38 154.47 175.38L180.567 135.297" stroke="#2E2D2C" stroke-width="2" stroke-linecap="round" stroke-linejoin="round"/>
<path d="M189.887 110.319C189.887 110.319 183.987 112.57 174.549 109.157C164.217 105.423 163.462 98.4062 163.462 98.4062L187.148 99.4947L189.887 110.319ZM189.887 110.319C191.671 112.739 194.075 114.74 196.829 116.095C201.836 118.834 210.315 119.955 210.315 119.955" stroke="#2E2D2C" stroke-width="2" stroke-linecap="round" stroke-linejoin="round"/>
<path d="M150.787 109.209C150.877 102.282 152.628 95.6827 155.913 89.888C161.284 80.8531 168.073 80.0349 168.073 80.0349L187.157 99.4867L209.636 116.424L210.268 119.916C210.268 119.916 202.349 137.943 159.142 135.695C130.569 134.223 115.816 135.715 104.163 142.967C96.5925 147.686 93.8073 157.055 92.7988 163.005" stroke="#2E2D2C" stroke-width="2" stroke-linecap="round" stroke-linejoin="round"/>
</svg>
