<svg xmlns="http://www.w3.org/2000/svg" width="203" height="195" fill="none">
    <path stroke="#2E2D2C" stroke-linecap="round" stroke-linejoin="round" stroke-width="2"
        d="m6.218 81.69.977-.881-.623-.69-4.13-4.579.094-1.82 3.12-2.815 5.042 2.657.558.619.006.006 3.608-3.255-.564-.625-1.969-5.43 3.36-3.03 1.884.084 4.13 4.578 2.62 2.904 1.674-1.51L98.587 17.76l1.366-.358 9.834 10.902M98.587 17.76l10.27 11.384M25.998 67.896l17.9 19.844M24.319 69.413l17.9 19.843M22.559 76.209l15.31 16.972M12.338 64.877l4.124 4.572M20.95 77.66 36.26 94.63" />
    <path stroke="#2E2D2C" stroke-linecap="round" stroke-linejoin="round" stroke-width="2"
        d="m18.999 75.498-.553-.613-3.577-3.966" />
    <path stroke="#2E2D2C" stroke-linecap="round" stroke-linejoin="round" stroke-width="2"
        d="m6.571 80.13.095-1.845 3.107-2.802 5.06 2.663.553.613L19 75.499l-.552-.613-1.987-5.437 3.367-3.037 1.882.11M11.793 85.92l4.076-3.677 1.466-1.322 3.614-3.26 1.609-1.451 4.35-3.925M17.336 80.92l15.31 16.972" />
    <path stroke="#2E2D2C" stroke-linecap="round" stroke-linejoin="round" stroke-width="2"
        d="m15.385 78.758-.552-.612-3.578-3.966M15.872 82.242l15.31 16.972M5.647 70.91l4.125 4.572M7.193 80.808l19.916 22.078M6.218 81.69l19.916 22.077M46.049 125.845l.977-.881.617.684 4.13 4.578 1.826.1 3.12-2.814-.006-.006-2.125-5.289-.558-.618 3.608-3.255.558.619 5.199 2.515.006.007 3.36-3.032.104-1.889-4.13-4.578-2.609-2.891 1.674-1.51 57.319-67.063.496-1.322-9.829-10.896M119.12 40.522l-10.263-11.378M61.794 107.577 43.9 87.74M60.115 109.094 42.22 89.257M37.863 93.174l15.31 16.972M59.27 116.906l4.13 4.578M36.253 94.624l15.31 16.972" />
    <path stroke="#2E2D2C" stroke-linecap="round" stroke-linejoin="round" stroke-width="2"
        d="m57.652 118.343-3.584-3.972-.552-.613" />
    <path stroke="#2E2D2C" stroke-linecap="round" stroke-linejoin="round" stroke-width="2"
        d="m62.73 111.992-.09 1.877-3.367 3.037-5.205-2.534-.552-.612-3.614 3.26.552.612 2.13 5.308-3.106 2.802-1.84-.088M57.524 106.222l-4.35 3.924-1.61 1.451-3.614 3.261-1.465 1.322-4.077 3.677M32.64 97.886l15.31 16.971" />
    <path stroke="#2E2D2C" stroke-linecap="round" stroke-linejoin="round" stroke-width="2"
        d="m54.038 121.604-3.584-3.972-.552-.612M31.176 99.207l15.31 16.972M52.583 122.939l4.13 4.579M47.027 124.963 27.11 102.886M46.048 125.845l-19.916-22.078M172.096 130.633 133.71 92.247m27.386 25.166 10.928-10.928a10.073 10.073 0 0 0-.018-14.166 10.083 10.083 0 0 0-14.142.006l-10.928 10.928m24.352 3.968 13.455 13.455m-15.56-10.807 16.808 16.808m0 0 3.378 3.377m-3.378-3.377-17.079-17.08m5.307-6.441 14.022 14.022m-12.888-17.652 18.895 18.894m0 0 3.377 3.378m-3.377-3.378-19.269-19.268m9.77 21.53 2.859 2.859m.639-6.357 2.859 2.859m8.491-4.318-50.973-50.973m24.576 64.765-1.11 1.11-63.064 47.01a1.2 1.2 0 0 1-1.58-.108l-20.638-20.638a1.21 1.21 0 0 1-.108-1.58l47.016-63.058 1.11-1.11m56.388 16.199 9.571 9.571a1.21 1.21 0 0 1 .352.854 1.206 1.206 0 0 1-.358.853l-3.166 3.166-6.514-1.749-3.497 3.498 1.755 6.507-6.966 6.966a1.204 1.204 0 0 1-1.701 0l-53.355-53.355a1.204 1.204 0 0 1 0-1.701l6.966-6.966 6.507 1.755m16.32 16.32-16.32-16.32m13.672 18.425-16.814-16.814m0 0-3.371-3.372m3.371 3.372 17.086 17.085m6.435-5.313-16.881-16.88m20.517 15.752-18.901-18.9m0 0-3.371-3.372m3.371 3.371 19.275 19.275M140.808 76.74l3.498-3.498m0 0-1.749-6.513 3.166-3.166a1.204 1.204 0 0 1 1.707-.006l9.583 9.583" />
</svg>