<svg width="223" height="209" viewBox="0 0 223 209" fill="none" xmlns="http://www.w3.org/2000/svg">
<path d="M124.317 71.9707L126.073 70.3686C127.602 68.9703 128.825 67.2706 129.662 65.3772L131.079 62.0301C131.9 60.171 133.258 58.5983 134.979 57.5135L139.375 54.8263C140.039 54.413 140.559 53.8041 140.862 53.0837C141.165 52.3633 141.236 51.5671 141.066 50.8049C140.895 50.043 140.49 49.3534 139.909 48.8313C139.327 48.3091 138.598 47.9803 137.82 47.89L132.698 47.3361C130.674 47.0899 128.772 46.2411 127.239 44.9002L124.469 42.5086C122.903 41.1538 121.072 40.1384 119.092 39.5267L116.82 38.8274M63.4667 87.6346L63.9825 89.9359C64.4657 91.9525 65.3721 93.8435 66.6419 95.4841L68.8626 98.3904C70.0979 100.013 70.8207 101.966 70.939 104.001L71.2383 109.142C71.2786 109.922 71.5611 110.669 72.0466 111.28C72.532 111.891 73.1964 112.335 73.9472 112.552C74.6984 112.772 75.4997 112.753 76.2402 112.499C76.9808 112.245 77.6241 111.767 78.0811 111.132L81.1011 106.949C82.2987 105.303 83.9589 104.048 85.8712 103.344L89.3229 102.077C91.2744 101.368 93.054 100.256 94.5447 98.8126L96.2413 97.1729M55.2177 50.8304L54.7019 48.5291C54.2781 46.4991 54.2907 44.4022 54.7388 42.3766L55.5066 38.8004C55.9341 36.8118 55.7552 34.7415 54.9931 32.8563L53.0658 28.063C52.7811 27.3384 52.7292 26.5432 52.9174 25.7875C53.1056 25.0317 53.5246 24.3528 54.1163 23.8448C54.7018 23.3254 55.4343 23.0002 56.2126 22.9142C56.9909 22.8282 57.7765 22.9856 58.4609 23.3647L62.9774 25.8586C64.7565 26.8539 66.7989 27.2811 68.8298 27.0828L72.4922 26.7556C74.5593 26.5632 76.6435 26.8095 78.6076 27.4784L80.8417 28.2372M116.558 56.2298L116.895 67.7791L124.73 73.3588C124.869 73.4453 124.985 73.5627 125.069 73.7018C125.154 73.8409 125.205 73.9979 125.218 74.1602C125.231 74.3225 125.206 74.4857 125.145 74.6368C125.084 74.7878 124.989 74.9226 124.866 75.0304L120.673 79.1531C120.005 79.8125 119.503 80.619 119.205 81.5076L117.703 85.997C117.123 87.7312 116.076 89.273 114.676 90.4539C113.438 91.5132 111.958 92.2539 110.367 92.6113L104.909 93.8345C104.744 93.8682 104.591 93.9436 104.464 94.0535L98.9637 98.5881C98.8373 98.6873 98.6911 98.758 98.5348 98.7955C98.3786 98.833 98.2162 98.8364 98.0586 98.8055C97.901 98.7746 97.752 98.71 97.6218 98.6163C97.4916 98.5225 97.3833 98.4017 97.3042 98.2622L93.0002 90.0189L81.2931 88.6261L71.1095 83.1473L62.3449 87.1202C62.2001 87.1879 62.0422 87.2227 61.8824 87.2222C61.7225 87.2217 61.5648 87.1859 61.4206 87.1173C61.2764 87.0487 61.1492 86.9491 61.0482 86.8256C60.9472 86.7021 60.875 86.5578 60.8366 86.403L59.3793 80.7384C59.1451 79.8314 58.6999 78.9924 58.0799 78.2894L54.9303 74.7403C53.7234 73.3709 52.9124 71.6994 52.5842 69.9047C52.2953 68.3039 52.4003 66.6566 52.8901 65.1045L54.578 59.7733C54.6309 59.6121 54.6394 59.4397 54.6027 59.2742L53.4541 52.2469C53.4289 52.0899 53.4386 51.9293 53.4828 51.7765C53.5271 51.6237 53.6046 51.4824 53.7098 51.3629C53.815 51.2434 53.9454 51.1485 54.0916 51.0851C54.2377 51.0216 54.3961 50.9912 54.5554 50.9959L63.8095 51.3386L70.8247 41.92L80.8247 35.6959L81.2455 26.4616C81.2547 26.3007 81.2993 26.1437 81.3762 26.0019C81.4531 25.86 81.5603 25.7368 81.6904 25.641C81.8204 25.5453 81.97 25.4792 82.1284 25.4477C82.2869 25.4162 82.4504 25.42 82.6071 25.4587L89.5164 27.212C89.6784 27.2571 89.8493 27.2597 90.0128 27.2199L95.4702 25.9967C97.0598 25.6413 98.7115 25.674 100.285 26.092C102.054 26.5745 103.659 27.5265 104.928 28.8468L108.202 32.266C108.851 32.9424 109.65 33.4571 110.535 33.7686L116.083 35.6908C116.238 35.7388 116.379 35.8215 116.497 35.9325C116.615 36.0435 116.706 36.1798 116.763 36.3312C116.82 36.4826 116.841 36.645 116.826 36.806C116.81 36.967 116.758 37.1224 116.674 37.2604L111.97 45.6505L116.595 56.2388M65.8374 122.795C66.12 123.481 66.5501 124.096 67.0973 124.598C67.6446 125.099 68.2957 125.474 69.0046 125.697C69.7135 125.92 70.4629 125.984 71.1998 125.886C71.9367 125.788 72.6431 125.529 73.2692 125.129L117.09 97.2656C118.946 96.0653 120.575 94.5478 121.902 92.783L153.244 51.939C153.711 51.3558 154.041 50.6757 154.21 49.9486C154.378 49.2215 154.381 48.466 154.218 47.738C154.055 47.01 153.73 46.3281 153.267 45.7424C152.804 45.1568 152.216 44.6825 151.545 44.3545L105.764 20.779C103.808 19.7555 101.688 19.0788 99.4989 18.7792L47.9737 12.2692C47.2359 12.1775 46.4868 12.2481 45.7791 12.4761C45.0713 12.7041 44.422 13.084 43.8767 13.5891C43.3315 14.0941 42.9036 14.712 42.623 15.3994C42.3424 16.0869 42.2161 16.8271 42.2527 17.5682L44.8142 67.0507C44.9903 70.3913 45.727 73.6782 46.9936 76.7744L65.8374 122.795ZM93.359 78.9094C84.1463 80.9742 75.0079 75.1965 72.9476 66.0044C70.8874 56.8123 76.6855 47.6868 85.8982 45.6219C95.1108 43.5571 104.249 49.3348 106.309 58.5269C108.37 67.719 102.572 76.8445 93.359 78.9094Z" stroke="#2E2D2C" stroke-width="2" stroke-linecap="round" stroke-linejoin="round"/>
<path d="M152.027 112.264L180.462 125.312M159.514 189.93L183.676 171.884M114.624 140.197L116.698 170.283M181.202 199.883L95.0218 160.336C94.5488 160.104 94.1437 159.754 93.8461 159.32C93.5484 158.886 93.3683 158.383 93.3234 157.859C93.2784 157.336 93.3702 156.81 93.5897 156.334C93.8091 155.857 94.1489 155.445 94.5757 155.139L173.914 95.937C174.33 95.6059 174.831 95.3968 175.36 95.333C175.889 95.2693 176.426 95.3533 176.91 95.5758C177.395 95.7983 177.809 96.1504 178.106 96.5931C178.402 97.0358 178.57 97.5516 178.591 98.0831L185.433 196.832C185.479 197.356 185.389 197.881 185.171 198.359C184.952 198.836 184.614 199.248 184.187 199.556C183.761 199.863 183.262 200.054 182.739 200.112C182.216 200.169 181.687 200.09 181.202 199.883ZM161.591 156.504C158.842 162.493 151.935 165.201 146.162 162.552C140.389 159.903 137.937 152.9 140.686 146.911C143.434 140.921 150.342 138.213 156.115 140.862C161.888 143.511 164.339 150.514 161.591 156.504Z" stroke="#2E2D2C" stroke-width="2" stroke-linecap="round" stroke-linejoin="round"/>
</svg>
