<svg width="222" height="209" viewBox="0 0 222 209" fill="none" xmlns="http://www.w3.org/2000/svg">
<path d="M83.6962 177.96C93.3728 175.22 104.211 173.823 114.345 172.662L118.274 172.216C121.124 171.911 123.944 171.568 126.582 171.25M122.891 184.354C121.797 184.646 120.628 184.922 119.375 185.19M119.375 185.19L119.026 185.274C111.947 186.814 102.55 187.681 92.6279 188.854M119.375 185.19C114.578 191.251 109.025 196.673 102.852 201.325L79.3102 172.61C85.2709 165.754 94.8157 156.859 107.653 151.451M183.944 135.354C182.198 136.509 180.264 137.349 178.229 137.839M166.047 157.283L160.169 157.451L160.495 163.106L154.184 161.8L154.933 168.86L146.726 167.17M166.047 157.283L164.988 149.733L171.402 151.296L171.792 145.457L176.339 144.629L178.173 137.884L172.11 139.754L169.032 142.278L163.112 141.317M166.047 157.283L158.85 154.765L159.909 162.315L152.712 159.797L153.254 166.717L143.807 163.609M146.726 167.17L148.285 174.31M146.726 167.17L143.807 163.609M148.285 174.31L140.059 172.635M148.285 174.31L144.689 169.924M140.059 172.635L141.102 179.145M140.059 172.635L135.073 166.553M141.102 179.145L131.673 176.022M141.102 179.145L135.963 172.877M131.673 176.022L133.083 181.921M131.673 176.022L126.337 169.513M133.083 181.921L123.457 178.557L124.339 184.872L122.882 184.361M133.083 181.921L124.546 171.508M126.671 128.185L126.146 133.841L134.986 144.624M126.671 128.185L133.824 130.631L144.367 143.491M126.671 128.185L141.289 146.015M134.986 144.624L141.289 146.015M134.986 144.624L131.926 147.132M120.017 138.865L119.977 132.557M119.977 132.557L126.164 133.826M119.977 132.557L131.926 147.132M113.82 137.604L113.86 143.913L118.376 149.42M113.82 137.604L120.008 138.873L126.454 146.735M113.82 137.604L121.445 146.904M126.454 146.735L131.926 147.132M126.454 146.735L121.445 146.904M107.854 142.883L107.644 151.459L112.742 148.845M107.854 142.883L113.851 143.92M107.854 142.883L112.742 148.845M181.508 119.693L190.166 130.254M163.112 141.317L160.043 143.833M163.112 141.317L150.266 125.648M160.043 143.833L153.766 142.437M160.043 143.833L147.197 128.164M153.766 142.437L150.688 144.96M153.766 142.437L141.004 126.869M150.688 144.96L144.367 143.491M150.688 144.96L137.925 129.393M144.367 143.491L141.289 146.015M121.445 146.904L118.376 149.42M118.376 149.42L112.742 148.845M150.266 125.648L157.014 127.619L160.092 125.096C160.092 125.096 172.301 125.256 180.355 119.894C185.763 116.298 187.374 110.698 185.829 108.058C184.713 106.167 181.838 103.795 172.31 103.916C166.714 103.933 161.2 105.267 156.215 107.809M150.266 125.648L147.197 128.164M147.197 128.164L141.004 126.869M141.004 126.869L137.925 129.393M137.925 129.393L133.807 130.629L131.771 121.849L138.459 123.746L137.4 116.195L144.597 118.714L143.538 111.163L150.735 113.682L150.459 107.086L156.262 107.848L157.958 103.543C157.958 103.543 162.618 101.134 174.483 100.724C180.936 100.373 187.407 100.905 193.717 102.304C193.717 102.304 193.292 109.35 192.692 116.183C192.224 120.911 191.402 125.596 190.231 130.201L183.991 135.316M157.021 127.628L169.039 142.287M160.1 125.105L172.117 139.764M165.183 125.046L176.205 138.49M169.529 124.087L180.285 137.207M173.763 122.973L183.926 135.37M181.087 119.387L190.064 130.338M143.807 163.609L144.689 169.924M144.689 169.924L135.073 166.553M135.073 166.553L135.963 172.877M135.963 172.877L126.337 169.513M126.337 169.513L126.581 171.267M123.466 178.549L118.282 172.226M124.349 184.864L114.353 172.672" stroke="#2E2D2C" stroke-width="2" stroke-linecap="round" stroke-linejoin="round"/>
<path d="M107.151 39.0224L104.935 96.7719M83.9219 116.121L34.1197 85.4523M27.8592 58.3363L79.8881 30.8946M115.607 86.936L120.891 65.9527L121 65.6423L121.159 65.3913L121.388 65.122L121.674 64.9488L121.968 64.8101L122.272 64.7036L122.597 64.6994L122.932 64.7293L133.32 67.2736L133.927 67.3843L134.571 67.3409L135.192 67.1975L135.747 66.9258L136.284 66.5891L136.723 66.1281L137.079 65.6171L137.303 65.0292L138.481 61.3172L138.689 60.3389L138.781 59.3165L138.691 58.2977L138.421 57.2861L138.021 56.341L137.497 55.4933L136.813 54.721L136.003 54.0483L135.158 53.5275L126.454 49.1663L126.199 49.0088L126.014 48.8372L125.82 48.6293L125.69 48.374L125.593 48.1094L125.538 47.8731L125.542 47.585L125.592 47.3247L126.234 44.7337L66.0553 26.7316L46.6739 32.8871L46.3279 32.967L46.0028 32.9712L45.6604 32.9086L45.3806 32.7933L45.0853 32.6107L44.8493 32.378L44.6769 32.0962L44.57 31.7993L41.8647 22.4331L41.6199 21.8464L41.3192 21.3415L40.8842 20.8696L40.3689 20.5234L39.8017 20.26L39.1795 20.082L38.5519 20.047L37.9234 20.1577L31.1696 21.717L30.1854 22.015L29.2753 22.4759L28.3966 23.0731L27.6528 23.7809L27.0424 24.6014L26.5598 25.5015L26.2044 26.4795L25.9968 27.4577L25.9825 28.5005L26.4809 38.0527L26.4685 38.3063L26.3846 38.5746L26.303 38.8442L26.1695 39.055L26.0013 39.2737L25.792 39.4637L25.5658 39.5887L25.3045 39.7198L23.6826 40.2379L36.7519 96.8033L53.0468 112.228L53.2486 112.471L53.4224 112.75L53.4934 113.057L53.5292 113.371L53.531 113.694L53.4209 114.006L53.2679 114.291L53.0749 114.551L45.5288 122.274L45.13 122.757L44.8616 123.322L44.6695 123.902L44.5958 124.53L44.6348 125.164L44.8104 125.767L45.115 126.305L45.4812 126.795L48.1319 129.619L48.9066 130.3L49.7598 130.855L50.6951 131.284L51.6992 131.554L52.7081 131.679L53.7566 131.652L54.7625 131.456L55.7387 131.123L56.6431 130.629L64.9536 125.27L65.2131 125.14L65.4477 125.051L65.7302 125.02L66.0207 125.024L66.2868 125.072L66.5582 125.151L66.811 125.307L67.0314 125.472L70.3674 128.64L115.607 86.936ZM87.8107 64.3537L88.3557 65.767L88.7946 67.2029L89.0978 68.6739L89.2294 70.1826L89.2558 71.7175L89.0947 73.2211L88.8244 74.7173L88.3976 76.175L87.8537 77.5908L87.1883 78.962L86.3566 80.2279L85.438 81.4412L84.3943 82.5781L83.25 83.5946L82.0031 84.4912L80.7 85.2936L79.3304 85.9659L77.8956 86.5135L76.3881 86.896L74.8904 87.1709L73.3532 87.2751L71.8252 87.2699L70.3023 87.1199L68.7828 86.8275L67.3357 86.3749L65.8993 85.8106L64.5333 85.0865L63.2557 84.2712L62.0587 83.332L60.9474 82.2983L59.955 81.1319L59.0872 79.8984L58.3178 78.6097L57.6705 77.2182L57.1965 75.7885L56.8166 74.3007L56.5812 72.8159L56.5184 71.2894L56.57 69.7767L56.771 68.2965L57.1202 66.8184L57.622 65.3779L58.2449 63.9802L58.9936 62.6625L59.8599 61.3886L60.8628 60.2248L61.9575 59.1508L63.1542 58.1949L64.4049 57.3319L65.7661 56.6233L67.1854 56.0084L68.6362 55.5299L70.1264 55.2222L71.6765 55.0079L73.1853 54.9467L74.7345 55.0523L76.2388 55.2793L77.7396 55.6487L79.1623 56.1453L80.5447 56.791L81.884 57.5576L83.108 58.4561L84.2787 59.4397L85.3266 60.5225L86.261 61.7367L87.1004 63.0131L87.8107 64.3537ZM88.9037 67.2102L88.4472 65.723L87.8854 64.2619L87.1532 62.8765L86.2855 61.5607L85.3198 60.302L84.2368 59.1833L83.0276 58.1665L81.7715 57.2447L80.3863 56.4542L78.9564 55.7851L77.4863 55.2746L75.936 54.8897L74.3828 54.6588L72.7788 54.5486L71.2184 54.6102L69.6187 54.8341L68.0771 55.1517L66.5779 55.6452L65.1112 56.2787L63.7037 57.0114L62.408 57.904L61.1744 58.8913L60.0428 60.0044L59.0053 61.2011L58.1092 62.5203L57.3342 63.8822L56.6933 65.3262L56.1739 66.8149L55.8128 68.3416L55.6041 69.8714L55.5533 71.4376L55.6161 73.0139L55.8592 74.5485L56.2509 76.0872L56.7434 77.5643L57.4126 79.0006L58.2061 80.3354L59.1026 81.6101L60.1309 82.8161L61.2787 83.8911L62.5181 84.8646L63.8387 85.7082L65.2486 86.4566L66.7259 87.0402L68.223 87.51L69.7931 87.8137L71.3631 87.9681L72.9431 87.9746L74.5312 87.8665L76.0785 87.582L77.6384 87.1854L79.1211 86.621L80.5369 85.9247L81.88 85.0959L83.1681 84.1706L84.3507 83.1203L85.4223 81.9464L86.3702 80.6938L87.2313 79.3808L87.9193 77.9662L88.4796 76.4968L88.9178 74.9887L89.1994 73.442L89.3655 71.8855L89.3392 70.3009L89.2191 68.734L88.9037 67.2102ZM98.1648 63.2937L98.6744 65.1765L99.0494 67.1248L99.2744 69.0714L99.3403 71.0183L99.2733 72.9959L99.0461 74.9359L98.7048 76.8639L98.2038 78.7561L97.5509 80.6469L96.7681 82.4568L95.8535 84.186L94.8147 85.8673L93.6517 87.4758L92.3861 88.9893L90.9827 90.3873L89.5269 91.7246L87.9239 92.9063L86.2574 93.9955L84.5254 94.9506L82.6918 95.7817L80.8602 96.463L78.923 97.0194L76.9939 97.4284L75.0272 97.691L73.0299 97.821L71.0363 97.8008L69.0464 97.6304L67.1035 97.34L65.1639 96.8977L63.2981 96.2928L61.4439 95.5723L59.6714 94.7239L57.9372 93.7172L56.2963 92.6163L54.7709 91.3758L53.301 90.0517L51.9984 88.6219L50.7444 87.0947L49.619 85.4689L48.6638 83.7656L47.804 82.002L47.0454 80.1785L46.4672 78.3135L46.0274 76.4088L45.7216 74.4446L45.5796 72.5171L45.5676 70.5213L45.7154 68.5614L46.0221 66.6413L46.4437 64.7292L47.0158 62.8207L47.7219 60.9941L48.5837 59.2024L49.534 57.5033L50.6575 55.8733L51.8702 54.2973L53.1863 52.8448L54.6341 51.473L56.1843 50.2288L57.7966 49.0793L59.5086 48.0542L61.2917 47.1621L63.1069 46.4099L64.9897 45.7837L66.9429 45.2964L68.8901 44.9579L70.8697 44.7593L72.8474 44.7104L74.8573 44.8015L76.8243 45.0136L78.7551 45.4178L80.6747 45.9317L82.5481 46.5693L84.3477 47.377L86.0981 48.3129L87.7693 49.3705L89.3476 50.5241L90.8441 51.8057L92.2519 53.1845L93.5396 54.7L94.7204 56.2421L95.781 57.9116L96.7003 59.6251L97.5025 61.4384L98.1648 63.2937ZM98.678 65.1756L98.1685 63.2928L97.5178 61.4464L96.7155 59.6331L95.7963 57.9195L94.7357 56.2501L93.5549 54.7079L92.2671 53.1924L90.8594 51.8137L89.3628 50.5321L87.7846 49.3784L86.1134 48.3209L84.3629 47.385L82.5634 46.5772L80.69 45.9396L78.7703 45.4257L76.8396 45.0215L74.8726 44.8095L72.8626 44.7184L70.8849 44.7672L68.9054 44.9659L66.9581 45.3044L65.005 45.7917L63.1222 46.4178L61.3069 47.17L59.5239 48.0622L57.8119 49.0873L56.1996 50.2367L54.6494 51.4809L53.2016 52.8528L51.8855 54.3052L50.6728 55.8812L49.5492 57.5113L48.5989 59.2104L47.7371 61.0021L47.031 62.8287L46.459 64.7372L46.0374 66.6493L45.7307 68.5693L45.5829 70.5293L45.5949 72.525L45.7368 74.4525L46.0427 76.4168L46.4811 78.316L47.0594 80.181L47.818 82.0044L48.6778 83.7681L49.6331 85.4714L50.7584 87.0972L52.0124 88.6244L53.3184 90.061L54.7884 91.3852L56.3138 92.6257L57.9547 93.7266L59.6889 94.7332L61.4614 95.5817L63.3156 96.3022L65.1814 96.907L67.121 97.3494L69.0639 97.6397L71.0538 97.8101L73.0474 97.8303L75.0447 97.7004L77.0114 97.4377L78.9405 97.0287L80.8777 96.4724L82.7094 95.791L84.5429 94.96L86.2749 94.0049L87.9414 92.9157L89.5444 91.7339L91.0002 90.3966L92.4036 88.9987L93.6691 87.4852L94.8322 85.8767L95.871 84.1953L96.7856 82.4661L97.5684 80.6563L98.2213 78.7655L98.7223 76.8733L99.0636 74.9453L99.2908 73.0053L99.3578 71.0277L99.2919 69.0807L99.0669 67.1342L98.678 65.1756Z" stroke="#2E2D2C" stroke-width="2" stroke-linecap="round" stroke-linejoin="round"/>
</svg>
