<svg width="214" height="234" viewBox="0 0 214 234" fill="none" xmlns="http://www.w3.org/2000/svg">
<path d="M69.2863 91.1384L84.651 82.2676M88.9329 79.7955L124.256 59.4018L90.542 1.00801L65.5988 15.409L62.0415 28.716L60.092 29.8416M55.8102 32.3137L40.4454 41.1845M40.1254 106.396L34.5617 109.608L35.8365 111.816M44.5354 74.0073L44.5595 74.5631L44.5238 75.1179L44.4141 75.6679L44.2341 76.1992L43.9788 76.7027L43.666 77.1682L43.2905 77.5868L42.8701 77.9482L42.401 78.2665L41.8998 78.5084L41.3714 78.6829L40.816 78.7899L40.2564 78.828L39.7017 78.7922L39.1554 78.6684L38.6242 78.4884L38.1258 78.242L37.6603 77.9291L37.2417 77.5535L36.8662 77.1293L36.5619 76.664L36.32 76.1626L36.1366 75.6394L36.0295 75.0839M44.5302 73.9984L44.4194 73.4569L44.2449 72.9285L43.9978 72.4183L43.6935 71.953L43.3321 71.5325L42.9046 71.1621L42.4391 70.8492L41.9356 70.5939L41.4044 70.4139L40.8632 70.299L40.2996 70.2683L39.7438 70.2924L39.1883 70.3994L38.6651 70.5828L38.1639 70.8247L37.6897 71.1341L37.2604 71.5007L36.8989 71.923L36.5861 72.3885L36.3308 72.892L36.1457 73.4143L36.036 73.9644L36.0002 74.5192L36.0384 75.0788M69.8463 29.3854L72.0021 30.4674L74.0847 31.7103L76.0608 33.0978L89.2245 55.898L113.981 41.605M69.8463 29.3854L67.9315 32.0103L66.0514 34.6746M69.8463 29.3854L69.6858 28.8608L69.0501 26.7113L68.4559 24.7159L67.9149 22.9153L67.4218 21.3007L66.974 19.8261L66.5846 18.5553L66.2547 17.5112L65.8018 16.0278L65.666 15.6076L65.604 15.4179L65.6143 15.4357M87.4121 71.6519L66.0603 34.6695L65.9388 34.8702L65.7951 35.238M52.2453 100.93L55.0189 99.3401L69.2774 91.1435L83.514 82.8884M83.514 82.8884L83.8625 82.711L84.295 82.4732L85.3454 81.8667L85.9278 81.5186L87.1652 80.8042L87.7934 80.4533L89.3869 79.5333L89.8001 79.2829L90.0963 79.0763L90.3123 78.916L90.4061 78.7906L90.3879 78.718L90.2667 78.693L90.0335 78.7208L89.7061 78.7911L89.2757 78.9091L88.7754 79.091L88.1951 79.3193L87.5983 79.5808L86.9635 79.8998L86.3441 80.2455L85.7261 80.6142L85.168 80.9839L84.638 81.3611L84.1718 81.7252L83.764 82.0675L83.4378 82.3864L83.1865 82.6502L83.0965 82.7615L69.0832 91.0539L54.9768 99.3288L40.8091 107.58M83.514 82.8884L83.3032 82.5234M40.8091 107.58L44.8594 114.595L44.2274 114.96M40.8091 107.58L40.7731 107.517M40.7731 107.517L40.8087 107.497M40.7731 107.517L40.0894 106.333L34.5257 109.546M40.8087 107.497L31.9935 92.2285M40.8087 107.497L41.1826 107.281L41.3555 107.169L41.5017 107.073L41.6872 106.942L41.8334 106.846L43.49 105.213L44.5732 103.389L45.0666 101.406L44.9703 99.2658L44.2832 97.0273M44.2832 97.0273L86.5584 72.6196M44.2832 97.0273L33.3831 92.2096M86.5584 72.6196L86.7529 72.4836L86.946 72.3247L87.2301 71.9944L87.4032 71.657M86.5584 72.6196L65.1192 35.4858L15.1883 64.3135M102.087 21.0038L77.3304 35.2968M65.7951 35.238L65.3698 35.3649L65.1281 35.4807M65.7951 35.238L62.0326 28.7211M15.1883 64.3135L13.0403 72.3317L26.3942 95.4613M15.1883 64.3135L17.7765 54.6523L17.8982 54.2259L30.1514 47.2227L42.3858 40.2898L54.6051 33.413L54.7465 33.3907L55.1006 33.305L55.5348 33.173L56.0402 32.9999L56.5887 32.7782L57.1804 32.5078L57.7744 32.2005L58.4078 31.8585L59.0118 31.4861L59.6055 31.0958L60.1354 30.7186L60.6233 30.3301L61.0259 29.979L61.3484 29.6741L61.5729 29.4257L61.7136 29.2377L61.7475 29.1113L61.6937 29.0593L61.5434 29.0867L61.2914 29.1847L60.9695 29.3468L60.546 29.5795L58.3294 30.8592L57.7203 31.2227L57.092 31.5736L55.4541 32.5193L55.0319 32.7749L54.7039 32.988M54.7039 32.988L42.4038 40.0538L30.1154 47.1604L23.4455 51.0469M54.7039 32.988L54.9147 33.353M33.3831 92.2096L33.0167 92.0888L32.6506 92.0509L32.3078 92.0945L31.9935 92.2285M33.3831 92.2096L41.8283 106.837M31.9935 92.2285L26.3942 95.4613M26.3942 95.4613L34.5257 109.546M34.5257 109.546L34.5669 109.617M39.4044 106.812L43.1104 113.231M39.4133 106.807L43.258 113.466M39.0127 107.038L40.2874 109.246M40.2874 109.246L35.8365 111.816M40.2874 109.246L40.4566 109.148L44.877 115.962L44.913 116.024L44.9363 116.106L44.9545 116.178L44.9409 116.258L44.922 116.328L44.8943 116.403L44.8563 116.461L44.7954 116.52L44.7382 116.564L39.949 119.33M35.8365 111.816L35.6673 111.913L39.3579 119.149L39.399 119.22L39.4528 119.272L39.5154 119.319L39.5819 119.352L39.6521 119.37L39.7312 119.384L39.8089 119.375L39.8815 119.357L39.9439 119.321M22.6728 89.0156L22.5036 89.1133L18.078 82.2907L18.042 82.2284L18.0238 82.1558L18.0146 82.0781L18.0142 81.9952L18.033 81.925L18.0607 81.8496L18.1076 81.7869L18.1596 81.7332L18.3911 81.5995M42.0437 79.6005L43.5204 78.8073L44.6815 77.5908L45.4066 76.092L45.6338 74.4296L45.3369 72.7848L44.5436 71.3079L43.3412 70.1503L41.8283 69.4213L40.1659 69.194L38.5212 69.4907L37.0445 70.2839L35.8923 71.4952L35.1583 72.9992L34.9311 74.6616L35.228 76.3064L36.0213 77.7833L37.2326 78.9357L38.7366 79.6699L40.399 79.8972L42.0437 79.6005ZM39.663 69.6387L40.6084 70.0425L41.652 70.4727L43.1261 71.0935L43.6793 71.3321L44.2221 71.5528L44.3479 72.5723L44.4894 73.7014L44.6903 75.2829L44.8345 76.4579L44.4953 76.7131L44.1433 76.9876L43.8129 77.2376L43.1344 77.7481L42.7735 78.0277L42.4165 78.2932L42.0645 78.5676L41.7074 78.8331L41.3555 79.1075L40.9019 79.4525L39.9476 79.0538L38.9078 78.6096L37.4388 77.9976L36.3428 77.5383L36.217 76.5188L36.0755 75.3897L35.7252 72.6244L36.1751 72.2934L36.5092 72.0293L36.8574 71.7689L37.2234 71.4983L37.5969 71.1995L38.2755 70.6891L38.6236 70.4287L38.9629 70.1734L39.3149 69.899L39.663 69.6387ZM42.5656 80.5456L44.1655 79.6575L45.4551 78.355L46.3161 76.7421L46.6969 74.9553L46.5459 73.1313L45.8957 71.4294L44.79 69.9667L43.3202 68.8804L41.5974 68.2607L39.7851 68.1437L37.9993 68.5456L36.3994 69.4337L35.1098 70.7362L34.2488 72.3491L33.8769 74.1307L34.0138 75.9509L34.6692 77.6618L35.7697 79.1156L37.2396 80.2018L38.9586 80.8356L40.7798 80.9475L42.5656 80.5456ZM45.6026 85.6414L47.726 84.3442L49.5493 82.6505L50.9834 80.6118L51.9932 78.3313L52.519 75.891L52.5448 73.4071L52.0621 70.9675L51.0993 68.6625L49.7003 66.6095L47.9062 64.8795L45.8041 63.541L43.4758 62.6536L41.0158 62.2577L38.5351 62.3604L36.1165 62.9614L33.8698 64.0449L31.8786 65.5507L30.241 67.422L29.0127 69.5912L28.243 71.9586L27.9724 74.4296L28.2003 76.9214L28.9327 79.3L30.1143 81.4905L31.7204 83.3883L33.6781 84.9289L35.9003 86.0438L38.3066 86.6962L40.7885 86.8421L43.254 86.4869L45.6026 85.6414ZM30.1345 83.4374L28.5961 81.2868L27.5028 78.8792L26.906 76.3036L26.8163 73.6608L27.2585 71.0551L28.1833 68.5863L29.5769 66.3335L31.3864 64.4104L33.5368 62.8721L35.9531 61.7738L38.5233 61.1683L41.1712 61.0877L43.7805 61.5161L46.2492 62.4412L48.4932 63.8402L50.4253 65.6449L51.9637 67.7955L53.057 70.2031L53.6538 72.7787L53.7434 75.4215L53.3153 78.0309L52.3816 80.5049L50.9829 82.7488L49.1785 84.6808L47.0192 86.2243L44.6118 87.3174L42.0364 87.914L39.3937 88.0034L36.7933 87.5699L34.3105 86.6411L32.0666 85.2421L30.1345 83.4374ZM44.414 86.7075L46.7005 85.6723L48.7492 84.2046L50.4762 82.3647L51.8028 80.2218L52.6885 77.8705L53.1006 75.3772L53.0141 72.8631L52.4434 70.4149L51.4117 68.1142L49.935 66.0704L48.1002 64.352L45.9662 63.02L43.6061 62.1391L41.1217 61.7217L38.6078 61.808L36.1509 62.3837L33.8555 63.4241L31.8157 64.8866L30.0887 66.7265L28.757 68.8605L27.8764 71.2207L27.4591 73.7051L27.5457 76.2192L28.1164 78.6673L29.1569 80.963L30.6247 83.0119L32.4596 84.7303L34.5935 86.0623L36.9588 86.952L39.438 87.3606L41.9571 87.2832L44.414 86.7075Z" stroke="#2E2D2C" stroke-width="2" stroke-linecap="round" stroke-linejoin="round"/>
<path d="M160.509 125.54L160.508 125.411M138.595 127.428L138.577 127.207M157.101 141.295L160.425 128.683M142.078 103.66C142.036 103.698 130.254 120.762 130.254 120.762C128.933 122.59 127.254 124.13 125.318 125.286M97.3638 210.238L158.775 172.94M147.321 125.207L147.148 122.919M146.793 126.808L147.316 125.198M152.37 126.215C152.368 126.191 151.859 125.672 151.859 125.672L150.696 124.438M150.696 124.438L150.523 122.15M150.696 124.438L149.007 124.83M147.287 125.215L148.978 124.847M149.035 124.877C148.529 124.991 148.06 125.231 147.672 125.575C147.283 125.919 146.989 126.357 146.816 126.846M149.03 124.868C149.539 124.756 150.069 124.775 150.569 124.924C151.069 125.073 151.522 125.346 151.887 125.719C152.059 125.937 152.203 126.175 152.318 126.428M157.564 141.014L160.801 128.791M159.826 120.432C155.77 112.962 145.032 112.382 139.881 119.003M134.57 135.435L137.807 123.212M157.096 141.35C157.251 141.237 157.415 141.137 157.587 141.052M138.219 123.401C138.101 123.324 137.969 123.273 137.83 123.25M138.219 123.401L134.89 136.004M138.219 123.401C142.663 109.268 163.519 113.946 160.458 128.779M134.88 136.01C134.79 135.828 134.684 135.654 134.565 135.49M138.365 124.089L138.204 123.333M138.354 124.07L135.357 135.41C135.202 135.588 135.037 135.757 134.863 135.917M157.295 140.337L157.336 140.403M155.697 139.962L157.272 140.299M154.616 135.923C154.881 136.849 155.468 138.989 155.731 139.89M136.795 136.011L140.436 132.506M142.998 103.386C143.493 103.499 149.471 105.314 154.893 106.639C159.337 107.717 165.277 108.83 165.759 108.9L166.892 109.169L167.181 109.304C167.274 109.383 167.349 109.481 167.403 109.591C167.456 109.701 167.486 109.821 167.491 109.943L167.143 111.862M142.746 103.397C142.746 103.397 142.746 103.397 142.689 103.431C142.496 103.491 142.321 103.597 142.179 103.741M142.792 103.472L143.063 103.514M155.227 168.161L153.52 167.607C139.907 174.84 123.257 183.012 107.48 178.754C101.862 175.005 96.6291 170.709 91.8567 165.93C86.3356 151.084 100.866 138.417 111.688 130.68M155.251 168.095L159.065 166.089M91.9039 165.901L76.2937 175.382L65.0141 156.803M97.4701 210.264L86.1905 191.684L107.527 178.725M157.388 173.872L153.487 167.446M86.1102 191.552L76.2133 175.25M155.171 167.962C155.811 169.656 156.668 172.046 157.308 173.74M170.497 124.118L170.843 135.937C168.589 144.239 166.037 153.201 163.41 161.38C162.649 163.705 161.598 166.917 160.67 169.201C160.122 170.259 159.704 172.233 158.619 172.853C157.928 170.841 158.81 168.055 158.985 165.957M159.864 105.624C158.172 103.69 155.077 103.151 152.186 104.971M159.022 165.934C159.022 165.934 169.959 128.558 170.249 127.438M115.033 130.459C110.971 129.861 107.565 130.791 103.351 133.351L64.9774 156.657M127.891 133.593L115.996 130.703L115.039 130.469M157.194 140.851C154.597 140.216 138.218 136.246 135.238 135.534M116.718 130.38L125.274 125.3M169.98 117.706L170.471 124.224C170.577 125.347 170.48 126.479 170.185 127.567M116.753 130.372C116.497 130.527 116.195 130.711 115.949 130.86M170.048 113.835C170.061 114.065 170.024 114.295 169.942 114.509C169.859 114.723 169.732 114.918 169.568 115.08C169.405 115.241 169.209 115.366 168.993 115.447C168.778 115.527 168.548 115.561 168.319 115.546L167.551 115.495M138.724 108.297C138.528 108.196 138.357 108.054 138.221 107.88C138.086 107.707 137.989 107.506 137.937 107.292C137.886 107.078 137.881 106.856 137.923 106.639C137.965 106.423 138.053 106.219 138.181 106.04C139.954 103.527 145.21 96.1438 146.973 93.6371L159.594 84.8339C159.782 84.7025 159.996 84.6127 160.222 84.5701C160.448 84.5276 160.68 84.5335 160.903 84.5873C161.127 84.6411 161.336 84.7417 161.518 84.8824C161.699 85.023 161.849 85.2006 161.957 85.4034L168.555 98.871C168.758 101.335 169.74 111.474 169.987 113.756M163.838 105.565L165.694 108.9M144.357 103.75L147.702 101.719C147.926 99.7592 148.812 97.9348 150.213 96.5474C151.615 95.1599 153.448 94.2926 155.409 94.0889L159.224 88.0594C159.308 87.9014 159.443 87.776 159.606 87.7029C159.77 87.6298 159.953 87.6132 160.127 87.6558C160.301 87.6983 160.456 87.7975 160.567 87.9378C160.679 88.078 160.74 88.2514 160.743 88.4306M160.697 88.4194L160.995 95.43C162.608 96.514 163.783 98.1354 164.312 100.005C164.841 101.875 164.689 103.872 163.883 105.641M157.758 107.162C158.761 106.854 159.64 106.235 160.267 105.394C160.894 104.552 161.236 103.533 161.244 102.484C161.251 101.434 160.925 100.41 160.31 99.5597C159.696 98.7092 158.827 98.0769 157.828 97.7546C152.947 96.3604 148.932 101.955 152.42 105.89M151.264 103.837C151.922 99.4017 159.057 98.1595 161.168 101.999M167.444 118.599L168.831 118.52C169.145 118.504 169.441 118.369 169.659 118.143C169.877 117.917 170.001 117.616 170.006 117.302L170.031 113.872M139.895 118.982C139.008 120.28 138.31 121.697 137.82 123.191M159.839 120.411C161.125 123 161.469 125.955 160.814 128.77C160.693 128.74 160.544 128.688 160.429 128.732M164.172 143.313L167.689 131.359L167.111 111.894L164.569 108.432L145.324 103.681L140.446 106.191L132.849 118.539L127.717 134.372L164.172 143.313ZM142.271 134.379C143.648 135.492 145.267 136.266 146.997 136.639C148.727 137.013 150.52 136.975 152.233 136.53C153.946 136.084 155.531 135.243 156.86 134.074C158.189 132.905 159.226 131.441 159.887 129.799C163.074 120.413 153.241 112.674 144.597 116.863C143.028 117.632 141.674 118.777 140.654 120.195C139.633 121.613 138.979 123.261 138.748 124.993C138.518 126.725 138.718 128.487 139.332 130.123C139.945 131.758 140.953 133.217 142.266 134.37L142.271 134.379ZM147.06 128.483C150.956 130.98 155.463 126.432 152.425 122.728C148.36 119.014 142.75 124.75 147.082 128.456L147.06 128.483ZM146.098 126.131C146.817 127.006 147.598 127.828 148.433 128.593C149.593 128.453 150.735 128.193 151.842 127.817C152.197 126.889 152.603 125.556 152.886 124.595C152.046 123.835 151.266 123.012 150.551 122.133C149.447 122.516 148.304 122.777 147.142 122.91C146.884 123.869 146.441 125.185 146.098 126.131Z" stroke="#2E2D2C" stroke-width="2" stroke-linecap="round" stroke-linejoin="round"/>
</svg>
