<svg width="234" height="153" viewBox="0 0 234 153" fill="none" xmlns="http://www.w3.org/2000/svg">
<path d="M0.666667 6C0.666667 8.94552 3.05448 11.3333 6 11.3333C8.94552 11.3333 11.3333 8.94552 11.3333 6C11.3333 3.05448 8.94552 0.666667 6 0.666667C3.05448 0.666667 0.666667 3.05448 0.666667 6ZM71.7403 6L72.4102 5.25757L72.1248 5H71.7403V6ZM222.667 147C222.667 149.946 225.054 152.333 228 152.333C230.946 152.333 233.333 149.946 233.333 147C233.333 144.054 230.946 141.667 228 141.667C225.054 141.667 222.667 144.054 222.667 147ZM6 7H71.7403V5H6V7ZM71.0704 6.74243L227.33 147.742L228.67 146.258L72.4102 5.25757L71.0704 6.74243Z" fill="white"/>
</svg>
