<svg width="130" height="268" viewBox="0 0 130 268" fill="none" xmlns="http://www.w3.org/2000/svg">
<path d="M0.666667 6C0.666667 8.94552 3.05448 11.3333 6 11.3333C8.94552 11.3333 11.3333 8.94552 11.3333 6C11.3333 3.05448 8.94552 0.666667 6 0.666667C3.05448 0.666667 0.666667 3.05448 0.666667 6ZM69.2681 6L70.246 5.79093L70.0769 5H69.2681V6ZM118.667 262C118.667 264.946 121.054 267.333 124 267.333C126.946 267.333 129.333 264.946 129.333 262C129.333 259.054 126.946 256.667 124 256.667C121.054 256.667 118.667 259.054 118.667 262ZM6 7H69.2681V5H6V7ZM68.2902 6.20907L123.022 262.209L124.978 261.791L70.246 5.79093L68.2902 6.20907Z" fill="white"/>
</svg>
