<svg width="512" height="79" viewBox="0 0 512 79" fill="none" xmlns="http://www.w3.org/2000/svg">
<path d="M0.666667 6C0.666667 8.94552 3.05448 11.3333 6 11.3333C8.94552 11.3333 11.3333 8.94552 11.3333 6C11.3333 3.05448 8.94552 0.666667 6 0.666667C3.05448 0.666667 0.666667 3.05448 0.666667 6ZM162.5 6L162.693 5.01877L162.597 5H162.5V6ZM500.667 73.5C500.667 76.4455 503.054 78.8333 506 78.8333C508.946 78.8333 511.333 76.4455 511.333 73.5C511.333 70.5545 508.946 68.1667 506 68.1667C503.054 68.1667 500.667 70.5545 500.667 73.5ZM6 7H162.5V5H6V7ZM162.307 6.98123L505.807 74.4812L506.193 72.5188L162.693 5.01877L162.307 6.98123Z" fill="white"/>
</svg>
