<svg width="544" height="67" viewBox="0 0 544 67" fill="none" xmlns="http://www.w3.org/2000/svg">
<path d="M0.709794 5.32283C0.335928 8.24453 2.40135 10.9161 5.32305 11.29C8.24474 11.6638 10.9163 9.59842 11.2902 6.67672C11.6641 3.75503 9.59863 1.08344 6.67694 0.709578C3.75524 0.335712 1.08366 2.40114 0.709794 5.32283ZM175.001 5.99992L175.15 5.0112L175.076 4.99992L175.001 4.99992L175.001 5.99992ZM532.708 60.3228C532.335 63.2445 534.4 65.9161 537.322 66.29C540.243 66.6638 542.915 64.5984 543.289 61.6767C543.663 58.755 541.597 56.0834 538.676 55.7096C535.754 55.3357 533.082 57.4011 532.708 60.3228ZM5.99999 6.99978L175.001 6.99992L175.001 4.99992L5.99999 4.99978L5.99999 6.99978ZM174.851 6.98863L537.849 61.9885L538.148 60.011L175.15 5.0112L174.851 6.98863Z" fill="white"/>
</svg>
