<svg width="414" height="137" viewBox="0 0 414 137" fill="none" xmlns="http://www.w3.org/2000/svg">
<path d="M0.666667 131C0.666667 133.946 3.05448 136.333 6 136.333C8.94552 136.333 11.3333 133.946 11.3333 131C11.3333 128.054 8.94552 125.667 6 125.667C3.05448 125.667 0.666667 128.054 0.666667 131ZM256.5 131V132H256.86L257.138 131.77L256.5 131ZM402.667 5.5C402.667 8.44552 405.054 10.8333 408 10.8333C410.946 10.8333 413.333 8.44552 413.333 5.5C413.333 2.55448 410.946 0.166667 408 0.166667C405.054 0.166667 402.667 2.55448 402.667 5.5ZM6 132H256.5V130H6V132ZM257.138 131.77L408.638 6.27009L407.362 4.72991L255.862 130.23L257.138 131.77Z" fill="white"/>
</svg>
